<?xml version="1.0" encoding="utf-8"?>
<!-- Generator: Adobe Illustrator 17.1.0, SVG Export Plug-In . SVG Version: 6.00 Build 0)  -->
<!DOCTYPE svg PUBLIC "-//W3C//DTD SVG 1.1//EN" "http://www.w3.org/Graphics/SVG/1.1/DTD/svg11.dtd">
<svg version="1.1" id="Layer_1" xmlns="http://www.w3.org/2000/svg" xmlns:xlink="http://www.w3.org/1999/xlink" x="0px" y="0px"
	 viewBox="0 0 786.7 400.6" enable-background="new 0 0 786.7 400.6" xml:space="preserve">
<path fill="none" stroke="#F7F8F9" stroke-miterlimit="10" d="M556.9,266.7"/>
<g>
	<path fill="none" stroke="#F7F8F9" stroke-width="0.3904" stroke-miterlimit="10" d="M40.3,122.6l44.8,5.1
		c48.5,5.5,96.5-14.6,126.4-53.2l45.4-58.6C267.5,2.2,285.6-3.2,302,2.3l0.3,0.1l194.5,176.7c26.7,24.2,65.5,29.4,97.6,13l125.4-64
		c12.8-6.6,27.6-8.3,41.6-5l0.9,0.2c25.5,6,32.8,38.9,12.2,55.1l-0.4,0c-23.6,2.3-47.3-2-68.6-12.5L486.1,58.3
		c-15.7-6.6-33-8.6-49.9-5.9l-147,23.8c-46.9,7.6-94.9,2.4-139.1-15.1L84.8,35.2"/>
	<path fill="none" stroke="#F4F5F8" stroke-width="0.3904" stroke-miterlimit="10" d="M84.5,38.5l9.4,3.8c-0.1-0.1,55,21.7,55,21.5
		c43.6,17,92.9,28.3,137.9,14c0,0,19.7-3.2,19.8-3.2c0.3-0.1,126.6-20.5,126.9-20.4c3.4-0.5,6.9-0.9,10.4-1c13.3-0.6,27,1.9,39.4,7
		l124.3,61c0,0,15.4,7.5,15.4,7.6l37.6,18.5c0.1,0.1,41.5,20.4,41.6,20.5c21.5,9.8,44.9,14.7,68.4,12.5l0.4,0
		c6.6-5.2,11.5-12.2,12.9-19.3c1.1-5.5,1.2-11.3-0.6-16.5c0,0,0-0.1,0-0.1c-1.4-4.8-3.7-9.2-7.7-12.5c-4-3.4-8.8-5.4-14.1-6.4
		l-0.9-0.2c-13.9-3.3-28.5-1.5-41.2,5c0,0-124.1,63.5-124.1,63.5c-31.8,16.2-70.3,11.1-96.7-12.8c-0.3,0.3-58.3-51.9-58.7-51.9l0,0
		c-0.3,0-38-34-38.2-34.1l0,0c-0.3-0.1-50.4-45.5-50.6-45.8L302.9,4.9l-0.3-0.1c-13.7-4.7-29-2-39.7,7.3c-1.9,1.7-3.8,3.5-5.4,5.6
		c-0.3-0.2-45.7,57.7-46,57.8c-18.7,23.6-44,40.6-71.9,48.9c-17.3,5.1-36.3,7.3-54.8,5.2L39.9,125"/>
	<path fill="none" stroke="#F2F3F7" stroke-width="0.3904" stroke-miterlimit="10" d="M84.3,41.8l9.2,3.7
		c-0.2-0.1,54.3,21.3,54.2,20.9c43.1,16.4,92,27.1,136.7,12.9c0.1,0,19.6-3.2,19.7-3.3c0.6-0.2,126-20.4,126.6-20.2
		c3.4-0.5,6.9-0.8,10.3-1c13.2-0.6,27,2,39.3,7.1l124.1,60.8c0.1,0,15.3,7.5,15.4,7.5l37.5,18.4c0.2,0.1,41.3,20.3,41.5,20.4
		c21.4,9.8,44.8,14.7,68.3,12.5l0.4,0c6.5-5.1,12.7-12.1,14.3-19.1c1.3-5.5,2.1-11.3,0.5-16.7c0,0,0-0.1,0-0.1
		c-1.1-5.1-2.9-9.7-7-13c-4.3-3.4-9.4-5-14.3-5.6c0,0-0.9-0.2-0.9-0.2c-13.7-3.2-28.2-1.5-40.8,5c0,0.1-122.9,62.9-122.9,63
		c-31.5,16.1-69.6,11.1-95.8-12.6c-0.5,0.6-58.4-50.9-59.2-50.8l0,0c-0.5,0-38.1-33.7-38.6-33.8l0,0c-0.7-0.1-50.6-45.3-50.9-45.9
		L303.5,7.5l-0.3-0.1c-13.6-4.6-29-2.4-39.6,6.6c-1.9,1.6-3.8,3.4-5.4,5.5c-0.6-0.4-45.9,56.9-46.7,57
		c-18.9,23.4-44.4,40.7-72.3,49.1c-17.1,5.2-36.5,7.8-54.8,5.7l-44.8-4"/>
	<path fill="none" stroke="#F0F1F6" stroke-width="0.3904" stroke-miterlimit="10" d="M84,45.1l9,3.7c-0.4-0.2,53.5,20.9,53.4,20.3
		C189,85,237.5,95.1,282,80.9c0.1,0,19.5-3.2,19.7-3.3c0.9-0.3,125.4-20.3,126.3-19.9c3.4-0.5,6.9-0.8,10.3-1
		c13.1-0.5,27,2.1,39.2,7.2l123.8,60.6c0.1,0.1,15.2,7.5,15.3,7.5l37.4,18.4c0.3,0.2,41.1,20.2,41.4,20.4
		c21.4,9.8,44.7,14.6,68.1,12.5l0.4,0c6.4-5.1,13.9-12.1,15.7-18.9c1.5-5.5,3.1-11.3,1.6-16.8c0,0,0-0.1,0-0.1
		c0.5-5.5-2.1-10.2-6.4-13.4c-4.6-3.5-9.9-4.6-14.6-4.9c0,0-0.9-0.2-0.9-0.2c-13.6-3.2-27.9-1.4-40.3,5c0,0.1-121.6,62.4-121.6,62.5
		c-31.1,16-68.9,11-94.8-12.4c-0.8,0.9-58.4-49.9-59.6-49.8l0,0c-0.8,0.1-38.2-33.3-39-33.5l0,0c-1-0.2-50.7-45.1-51.2-46L304.1,10
		l-0.3-0.1c-13.5-4.6-29-2.9-39.6,6c-1.9,1.6-3.8,3.4-5.5,5.3c-0.8-0.7-46.1,56-47.3,56.2c-19.2,23.3-44.7,40.8-72.7,49.3
		c-16.9,5.2-36.7,8.4-54.9,6.3l-44.9-3.5"/>
	<path fill="none" stroke="#EEEFF5" stroke-width="0.3904" stroke-miterlimit="10" d="M83.7,48.4l8.9,3.6
		c-0.5-0.2,52.7,20.4,52.6,19.8c42.1,15.4,90.2,24.8,134.4,10.7c0.2-0.1,19.4-3.2,19.6-3.3c1.2-0.4,124.7-20.2,126-19.7
		c3.4-0.5,6.8-0.8,10.3-0.9c12.9-0.5,27,2.2,39,7.2L598,126.3c0.2,0.1,15.2,7.4,15.3,7.5l37.3,18.4c0.4,0.3,40.9,20.2,41.3,20.4
		c21.3,9.7,44.6,14.6,67.9,12.5l0.4,0c6.4-5,15-12,17-18.8c1.7-5.6,4-11.3,2.7-16.9c0,0,0-0.1,0-0.1c1.3-5.8-1.3-10.6-5.8-13.9
		c-4.9-3.5-10.5-4.2-14.9-4.2c0,0-0.9-0.2-0.9-0.2c-13.4-3.1-27.6-1.4-39.9,5c0.1,0.2-120.4,61.8-120.4,62
		c-30.8,15.9-68.2,11-93.9-12.2c-1.1,1.2-58.5-48.9-60.1-48.7l-0.1,0c-1,0.1-38.4-33-39.4-33.2l0,0c-1.3-0.3-50.8-45-51.6-46.1
		l-48.3-45.2l-0.3-0.1c-13.3-4.5-29-3.3-39.5,5.4c-1.9,1.6-3.8,3.3-5.5,5.2c-1.1-0.9-46.3,55.2-47.9,55.5
		c-19.4,23.1-45.1,40.8-73,49.6c-16.7,5.2-37,8.9-54.9,6.8L38.7,132"/>
	<path fill="none" stroke="#EBEDF4" stroke-width="0.3904" stroke-miterlimit="10" d="M83.5,51.7l8.7,3.6c-0.6-0.3,52,20,51.8,19.2
		c41.6,14.8,89.3,23.7,133.2,9.6c0.2-0.1,19.3-3.2,19.6-3.3c1.6-0.5,124.1-20.1,125.7-19.5c3.4-0.5,6.8-0.7,10.2-0.9
		c12.8-0.5,27,2.3,38.9,7.3L594.8,128c0.2,0.1,15.1,7.4,15.3,7.5l37.2,18.4c0.5,0.3,40.7,20.1,41.2,20.3
		c21.3,9.7,44.5,14.6,67.8,12.5l0.4,0c6.3-5,16.2-12,18.4-18.6c1.9-5.6,5-11.3,3.8-17.1c0,0,0-0.1,0-0.1c2-6.1-0.4-11.1-5.2-14.3
		c-5.2-3.5-11-3.8-15.2-3.4c0,0-0.9-0.2-0.9-0.2c-13.3-3.1-27.3-1.3-39.5,5c0.1,0.2-119.1,61.3-119.1,61.5
		c-30.5,15.7-67.6,10.9-93-11.9c-1.3,1.5-58.5-47.9-60.6-47.7l-0.1,0c-1.3,0.1-38.5-32.6-39.8-32.9l-0.1,0
		c-1.7-0.3-50.9-44.8-51.9-46.2L305.3,15l-0.3-0.1c-13.2-4.5-29-3.7-39.5,4.8c-1.9,1.6-3.8,3.2-5.5,5.1
		c-1.4-1.1-46.6,54.3-48.5,54.7c-19.7,23-45.5,40.9-73.4,49.8c-16.5,5.3-37.2,9.4-54.9,7.4l-44.9-2.4"/>
	<path fill="none" stroke="#E9EBF3" stroke-width="0.3904" stroke-miterlimit="10" d="M83.2,55l8.5,3.6c-0.7-0.3,51.2,19.6,51,18.6
		c41,14.3,88.4,22.5,132.1,8.5c0.2-0.1,19.2-3.3,19.5-3.4c1.9-0.6,123.5-19.9,125.3-19.2c3.4-0.5,6.8-0.7,10.2-0.8
		c12.7-0.5,27.1,2.4,38.8,7.3l123,60.1c0.2,0.1,15,7.4,15.2,7.5l37.1,18.3c0.6,0.4,40.5,20,41.1,20.3c21.2,9.7,44.4,14.5,67.6,12.5
		l0.4,0c6.2-4.9,18.7-11.6,19.8-18.4c3.1-5.2,4.8-11.2,4.9-17.2c0,0,0-0.1,0-0.1c2.8-6.4,0.4-11.6-4.6-14.8
		c-5.5-3.6-11.5-3.4-15.5-2.7c0,0-0.9-0.2-0.9-0.2c-13.2-3.1-27-1.3-39,4.9c0.1,0.3-117.8,60.7-117.9,61
		c-30.2,15.6-66.9,10.9-92.1-11.7c-1.6,1.8-58.6-46.9-61-46.6l-0.1,0c-1.5,0.1-38.7-32.3-40.2-32.6l-0.1,0
		c-2-0.4-51.1-44.6-52.2-46.3l-48.4-46l-0.3-0.1c-13.1-4.4-29-4.2-39.4,4.2c-1.9,1.5-3.9,3.1-5.6,4.9c-1.7-1.3-46.8,53.5-49.1,53.9
		c-19.9,22.8-45.8,41-73.7,50.1c-16.3,5.3-37.4,10-54.9,8l-44.9-1.8"/>
	<path fill="none" stroke="#E7E9F2" stroke-width="0.3904" stroke-miterlimit="10" d="M82.9,58.3l8.4,3.5
		c-0.9-0.4,50.5,19.2,50.2,18c40.5,13.8,87.4,21.4,130.9,7.4c0.3-0.1,19.1-3.3,19.5-3.4c2.2-0.7,122.9-19.8,125-19
		c3.4-0.5,6.8-0.7,10.2-0.8c12.5-0.4,27.1,2.5,38.7,7.4l122.7,59.9c0.3,0.1,14.9,7.3,15.2,7.5l37,18.3c0.7,0.5,40.2,19.9,41,20.3
		c21.2,9.6,44.3,14.5,67.4,12.5l0.4,0c6.2-4.9,20.1-11.5,21.2-18.3c3.5-5.2,5.5-11.2,6-17.4c0,0,0-0.1,0-0.1
		c3.6-6.7,1.2-12.1-4-15.2c-5.9-3.6-12.1-3-15.8-2c0,0-0.8-0.2-0.8-0.2c-13-3-26.7-1.3-38.6,4.9c0.1,0.3-116.6,60.2-116.7,60.5
		c-29.9,15.5-66.2,10.8-91.2-11.5c-1.9,2.1-58.7-45.9-61.5-45.6l-0.1,0c-1.8,0.2-38.8-31.9-40.6-32.3l-0.1,0
		c-2.3-0.5-51.2-44.4-52.5-46.4L306.5,20l-0.3-0.1c-12.9-4.4-29-4.6-39.4,3.6c-1.9,1.5-3.9,3-5.6,4.8c-2-1.5-47,52.6-49.7,53.1
		c-20.2,22.7-46.2,41.1-74.1,50.3c-16.1,5.3-37.6,10.5-55,8.5l-45-1.3"/>
	<path fill="none" stroke="#E5E7F2" stroke-width="0.3904" stroke-miterlimit="10" d="M82.7,61.6l8.2,3.5
		c-1-0.4,49.7,18.8,49.4,17.4c40,13.2,86.5,20.2,129.7,6.3c0.3-0.1,19-3.3,19.4-3.4c2.5-0.8,122.3-19.7,124.7-18.8
		c3.4-0.4,6.8-0.6,10.1-0.8c12.4-0.4,27.1,2.6,38.6,7.5l122.4,59.8c0.3,0.1,14.9,7.3,15.2,7.5l36.9,18.3c0.8,0.5,40,19.8,40.9,20.2
		c21.1,9.6,44.1,14.5,67.3,12.5l0.4,0c6.1-4.8,21.5-11.4,22.6-18.1c3.9-5.1,6.3-11.2,7.1-17.5c0,0,0-0.1,0-0.1
		c4.3-7,2-12.5-3.3-15.7c-6.2-3.7-12.6-2.6-16-1.2c0,0-0.8-0.2-0.8-0.2c-12.9-3-26.4-1.2-38.2,4.9c0.1,0.3-115.3,59.7-115.4,60
		c-29.6,15.3-65.5,10.8-90.2-11.3c-2.1,2.4-58.7-44.9-61.9-44.5l-0.1,0c-2,0.2-38.9-31.5-41-32l-0.1,0c-2.7-0.5-51.3-44.2-52.8-46.5
		l-48.5-46.8l-0.3-0.1c-12.8-4.3-28.9-5.1-39.3,2.9c-1.9,1.5-3.9,2.9-5.6,4.7c-2.2-1.7-47.3,51.7-50.3,52.3
		c-20.4,22.5-46.5,41.2-74.4,50.5c-15.9,5.4-37.8,11-55,9.1l-45-0.8"/>
	<path fill="none" stroke="#E3E5F1" stroke-width="0.3904" stroke-miterlimit="10" d="M82.4,64.9l8,3.5c-1.1-0.5,49,18.4,48.6,16.9
		c39.5,12.7,85.6,19.1,128.5,5.2c0.4-0.1,18.9-3.3,19.4-3.4c2.8-0.9,121.7-19.6,124.4-18.6c3.4-0.4,6.7-0.6,10.1-0.7
		c12.3-0.4,27.1,2.7,38.5,7.5l122.1,59.6c0.4,0.2,14.8,7.3,15.2,7.5l36.8,18.2c0.9,0.6,39.8,19.8,40.8,20.2
		c21.1,9.6,44,14.4,67.1,12.5l0.4,0c6-4.8,22.9-11.3,23.9-17.9c4.2-5.1,7-11.2,8.2-17.7c0,0,0-0.1,0-0.1c5.1-7.4,2.8-13-2.7-16.1
		c-6.5-3.7-13.1-2.2-16.3-0.5c0,0-0.8-0.2-0.8-0.2c-12.7-2.9-26.1-1.2-37.8,4.9c0.1,0.4-114.1,59.1-114.2,59.5
		c-29.3,15.2-64.8,10.8-89.3-11.1c-2.4,2.7-58.8-43.8-62.4-43.5l-0.1,0c-2.3,0.2-39.1-31.2-41.3-31.7l-0.1,0
		c-3-0.6-51.5-44-53.1-46.6L307.7,25l-0.3-0.1c-12.6-4.3-28.9-5.5-39.3,2.3c-1.9,1.5-3.9,2.8-5.7,4.6c-2.5-2-47.5,50.9-51,51.6
		c-20.7,22.4-46.9,41.2-74.8,50.8c-15.7,5.4-38,11.6-55,9.6l-45-0.2"/>
	<path fill="none" stroke="#E1E3F0" stroke-width="0.3904" stroke-miterlimit="10" d="M82.1,68.2l7.8,3.4
		c-1.2-0.5,48.2,18,47.8,16.3c39,12.2,84.7,17.9,127.4,4.1c0.4-0.1,18.8-3.3,19.3-3.5c3.1-1,121.1-19.5,124.1-18.3
		c3.4-0.4,6.7-0.6,10.1-0.7c12.1-0.3,27.1,2.8,38.4,7.6L579,136.5c0.4,0.2,14.7,7.2,15.1,7.4l36.7,18.2c1,0.7,39.6,19.7,40.7,20.2
		c21,9.6,43.9,14.4,67,12.5l0.4,0c6-4.7,24.3-11.2,25.3-17.7c4.6-5,7.8-11.2,9.3-17.8c0,0,0-0.1,0-0.1c5.8-7.7,3.6-13.5-2.1-16.6
		c-6.8-3.7-13.7-1.8-16.6,0.2c0,0-0.8-0.2-0.8-0.2c-12.6-2.9-25.8-1.1-37.3,4.9c0.2,0.4-112.8,58.6-112.9,59
		c-29,15.1-64.2,10.7-88.4-10.9c-2.7,3-58.8-42.8-62.8-42.4l-0.1,0c-2.6,0.2-39.2-30.8-41.7-31.4l-0.1,0
		c-3.3-0.7-51.6-43.8-53.4-46.7l-48.6-47.6l-0.2-0.1c-12.5-4.2-28.9-6-39.3,1.7c-1.9,1.4-3.9,2.8-5.7,4.4
		c-2.8-2.2-47.7,50-51.6,50.8c-20.9,22.2-47.2,41.3-75.1,51c-15.5,5.4-38.2,12.1-55.1,10.2l-45,0.3"/>
	<path fill="none" stroke="#DEE1EF" stroke-width="0.3904" stroke-miterlimit="10" d="M81.9,71.5l7.7,3.4
		c-1.4-0.6,47.5,17.6,47.1,15.7c38.5,11.6,83.8,16.8,126.2,3c0.4-0.1,18.7-3.3,19.3-3.5C285.5,89,402.5,70.7,405.9,72
		c3.3-0.4,6.7-0.5,10.1-0.6c12-0.3,27.1,3,38.3,7.6l121.6,59.2c0.5,0.2,14.7,7.2,15.1,7.4l36.5,18.2c1,0.7,39.4,19.6,40.6,20.1
		c21,9.5,43.8,14.4,66.8,12.5l0.4,0c5.9-4.7,25.6-11.1,26.7-17.6c5-5,8.5-11.2,10.4-17.9c0,0,0-0.1,0-0.1c6.6-8,4.4-13.9-1.5-17
		c-7.1-3.8-14.2-1.4-16.9,1c0,0-0.8-0.2-0.8-0.2c-12.4-2.8-25.5-1.1-36.9,4.9c0.2,0.5-111.5,58-111.7,58.5
		c-28.7,14.9-63.5,10.7-87.5-10.6c-2.9,3.3-58.9-41.8-63.3-41.4l-0.1,0c-2.8,0.3-39.4-30.5-42.1-31.1l-0.1,0
		c-3.7-0.7-51.7-43.7-53.8-46.8l-48.6-48l-0.2-0.1c-12.4-4.2-29-6.4-39.2,1.1c-1.9,1.4-3.9,2.7-5.7,4.3c-3.1-2.4-47.9,49.2-52.2,50
		c-21.2,22.1-47.6,41.4-75.5,51.3c-15.3,5.4-38.4,12.6-55.1,10.7l-45.1,0.9"/>
	<path fill="none" stroke="#DCDFEE" stroke-width="0.3904" stroke-miterlimit="10" d="M81.6,74.8l7.5,3.3
		c-1.5-0.6,46.7,17.2,46.3,15.1c37.9,11.1,82.9,15.6,125,1.9c0.5-0.2,18.5-3.3,19.2-3.5c3.7-1.2,119.9-19.3,123.5-17.9
		c3.3-0.4,6.7-0.5,10-0.6c11.9-0.3,27.2,3.1,38.2,7.7L572.6,140c0.5,0.2,14.6,7.1,15.1,7.4l36.4,18.1c1.1,0.8,39.2,19.5,40.4,20.1
		c20.9,9.5,43.7,14.3,66.6,12.5l0.4,0c5.8-4.6,27-11,28.1-17.4c5.4-4.9,9.3-11.2,11.5-18.1c0,0,0-0.1,0-0.1
		c7.3-8.3,5.2-14.4-0.9-17.5c-7.5-3.8-14.7-1-17.2,1.7c0,0-0.8-0.2-0.8-0.2c-12.3-2.8-25.2-1.1-36.5,4.9
		c0.2,0.5-110.3,57.5-110.4,58C577,224.2,542.6,220,518.8,199c-3.2,3.6-59-40.8-63.8-40.4l-0.1,0c-3.1,0.3-39.5-30.1-42.5-30.8
		l-0.1,0c-4-0.8-51.9-43.5-54.1-46.9l-48.7-48.3l-0.2-0.1c-12.2-4.1-29-6.9-39.2,0.5c-1.9,1.4-4,2.6-5.7,4.2
		c-3.4-2.6-48.2,48.3-52.8,49.2c-21.4,21.9-47.9,41.5-75.9,51.5c-15.1,5.4-38.6,13.2-55.1,11.3l-45.1,1.4"/>
	<path fill="none" stroke="#DADDED" stroke-width="0.3904" stroke-miterlimit="10" d="M81.3,78.1l7.3,3.3
		c-1.6-0.7,46,16.8,45.5,14.5c37.4,10.6,82,14.5,123.9,0.8c0.5-0.2,18.4-3.3,19.2-3.5c4-1.3,119.2-19.2,123.2-17.6
		c3.3-0.4,6.7-0.3,10-0.5c11.7-0.8,27.2,3.2,38.1,7.7l121,58.9c0.5,0.2,14.5,7.1,15,7.4l36.3,18.1c1.2,0.9,39,19.4,40.3,20.1
		c20.9,9.5,43.6,14.3,66.5,12.5l0.4,0c5.8-4.6,28.4-10.9,29.4-17.2c5.7-4.9,10-11.2,12.6-18.2c0,0,0-0.1,0-0.1
		c8.1-8.6,6-14.8-0.3-17.9c-7.8-3.9-15.3-0.6-17.5,2.4c0,0-0.8-0.2-0.8-0.2c-12.1-2.7-24.9-1-36,4.9c0.2,0.6-109,56.9-109.2,57.5
		c-28.1,14.7-62.1,10.6-85.7-10.2c-3.5,3.9-59-39.8-64.2-39.3l-0.2,0c-3.3,0.3-39.6-29.8-42.9-30.5l-0.1,0c-4.4-0.9-52-43.3-54.4-47
		l-48.7-48.7l-0.2-0.1c-12.1-4.1-29-7.3-39.1-0.1c-1.9,1.4-4,2.5-5.8,4c-3.6-2.8-48.4,47.5-53.4,48.4
		c-21.7,21.8-48.3,41.6-76.2,51.8c-14.9,5.5-38.9,13.7-55.1,11.9l-45.1,2"/>
	<path fill="none" stroke="#D8DBEC" stroke-width="0.3904" stroke-miterlimit="10" d="M81.1,81.4l7.2,3.3
		c-1.7-0.7,45.2,16.3,44.7,14c36.9,10,81.1,13.3,122.7-0.3c0.6-0.2,18.3-3.3,19.1-3.6c4.4-1.4,118.6-19.1,122.9-17.4
		c3.3-0.3,6.6-0.3,10-0.5c11.6-0.8,27.2,3.3,38,7.8l120.7,58.7c0.6,0.3,14.4,7.1,15,7.4l36.2,18.1c1.3,1,38.7,19.4,40.2,20
		c20.8,9.4,43.5,14.3,66.3,12.5l0.4,0c5.7-4.5,29.8-10.8,30.8-17.1c6.1-4.8,10.8-11.2,13.7-18.4c0,0,0.1-0.1,0-0.1
		c8.9-8.9,6.8-15.3,0.4-18.4c-8.1-3.9-15.8-0.1-17.8,3.2c0,0-0.8-0.2-0.8-0.2c-12-2.7-24.6-1-35.6,4.8c0.2,0.6-107.8,56.4-107.9,57
		c-27.7,14.6-61.5,10.5-84.7-10c-3.7,4.2-59.1-38.8-64.7-38.3l-0.2,0c-3.6,0.3-39.8-29.4-43.3-30.2l-0.1,0
		c-4.7-0.9-52.1-43.1-54.7-47.1l-48.8-49.1l-0.2-0.1c-12-4-29-7.8-39.1-0.8c-1.9,1.3-4,2.4-5.8,3.9c-3.9-3-48.6,46.6-54,47.6
		c-21.9,21.6-48.6,41.6-76.6,52c-14.7,5.5-39.1,14.3-55.2,12.4l-45.1,2.5"/>
	<path fill="none" stroke="#D6D9EB" stroke-width="0.3904" stroke-miterlimit="10" d="M80.8,84.7l7,3.2
		c-1.9-0.8,44.5,15.9,43.9,13.4c36.4,9.5,80.2,12.2,121.5-1.4c0.6-0.2,18.2-3.3,19-3.6c4.7-1.5,118-18.9,122.6-17.2
		c3.3-0.3,6.6-0.2,9.9-0.5c11.5-0.8,27.2,3.4,37.9,7.9l120.5,58.5c0.6,0.3,14.4,7,15,7.4l36.1,18.1c1.4,1,38.5,19.3,40.1,20
		c20.8,9.4,43.4,14.2,66.1,12.5l0.4,0c5.7-4.5,31.2-10.7,32.2-16.9c6.5-4.8,11.6-11.2,14.8-18.5c0,0,0.1-0.1,0-0.1
		c9.6-9.2,7.6-15.8,1-18.8c-8.4-3.9-16.3,0.3-18,3.9c0,0-0.8-0.2-0.8-0.2c-11.8-2.6-24.3-0.9-35.2,4.8
		c0.2,0.6-106.5,55.8-106.7,56.5c-27.4,14.4-60.8,10.5-83.8-9.8c-4,4.4-59.1-37.8-65.1-37.2l-0.2,0c-3.8,0.4-39.9-29.1-43.7-29.9
		l-0.1,0c-5-1-52.2-42.9-55-47.2l-48.8-49.5l-0.2-0.1c-11.8-4-29-8.2-39-1.4c-1.9,1.3-4,2.3-5.8,3.8c-4.2-3.3-48.9,45.7-54.6,46.9
		c-22.2,21.5-49,41.7-76.9,52.2c-14.5,5.5-39.3,14.8-55.2,13l-45.2,3.1"/>
	<path fill="none" stroke="#D4D7EB" stroke-width="0.3904" stroke-miterlimit="10" d="M80.5,88l6.8,3.2c-2-0.8,43.7,15.5,43.1,12.8
		c35.9,9,79.3,11,120.4-2.5c0.7-0.2,18.1-3.3,19-3.6c5-1.7,117.4-18.8,122.3-17c3.3-0.3,6.6-0.2,9.9-0.4c11.3-0.9,27.2,3.5,37.8,7.9
		l120.2,58.4c0.7,0.3,14.3,7,14.9,7.4l36,18c1.5,1.1,38.3,19.2,40,20c20.7,9.4,43.3,14.2,66,12.5l0.4,0c5.6-4.4,32.6-10.6,33.6-16.7
		c6.8-4.7,12.3-11.2,15.9-18.6c0,0,0.1-0.1,0.1-0.1c10.4-9.5,8.4-16.2,1.6-19.3c-8.8-3.9-16.9,0.7-18.3,4.7c0,0-0.8-0.2-0.8-0.2
		c-11.7-2.6-24-0.9-34.7,4.8c0.3,0.7-105.2,55.3-105.4,56c-27.1,14.3-60.1,10.4-82.9-9.5c-4.3,4.7-59.2-36.8-65.6-36.2l-0.2,0
		c-4.1,0.4-40.1-28.7-44.1-29.6l-0.2,0c-5.4-1.1-52.4-42.7-55.3-47.3l-48.9-49.9l-0.2-0.1c-11.7-4-29-8.7-39-2
		c-1.9,1.3-4,2.2-5.9,3.7c-4.5-3.5-49.1,44.9-55.3,46.1c-22.4,21.3-49.3,41.8-77.3,52.5c-14.3,5.5-39.5,15.3-55.2,13.5L34,159.9"/>
	<path fill="none" stroke="#D2D5EA" stroke-width="0.3904" stroke-miterlimit="10" d="M80.3,91.3l6.6,3.2
		c-2.1-0.9,43,15.1,42.3,12.2c35.4,8.4,78.4,9.9,119.2-3.6c0.7-0.2,18-3.3,18.9-3.6c5.3-1.8,116.8-18.7,122-16.7
		c3.3-0.3,6.6-0.1,9.9-0.4c11.2-0.9,27.2,3.6,37.6,8l119.9,58.2c0.7,0.3,14.2,7,14.9,7.4l35.9,18c1.6,1.2,38.1,19.1,39.9,19.9
		c20.7,9.4,43.2,14.2,65.8,12.5l0.4,0c5.5-4.4,34-10.5,34.9-16.6c7.2-4.7,13.1-11.2,17-18.8c0,0,0.1-0.1,0.1-0.1
		c11.1-9.8,9.2-16.7,2.2-19.7c-9.1-4-17.4,1.1-18.6,5.4c0,0-0.8-0.2-0.7-0.2c-11.5-2.6-23.7-0.9-34.3,4.8
		c0.3,0.7-104,54.7-104.2,55.5c-26.8,14.2-59.4,10.4-82-9.3c-4.5,5-59.2-35.8-66-35.1l-0.2,0c-4.3,0.4-40.2-28.4-44.5-29.2l-0.2,0
		c-5.7-1.2-52.5-42.6-55.6-47.5l-48.9-50.3l-0.2-0.1c-11.5-3.9-29-9.1-38.9-2.6c-1.9,1.3-4,2.2-5.9,3.5c-4.8-3.7-49.3,44-55.9,45.3
		C189,112.4,162,133.1,134,144c-14.1,5.5-39.7,15.9-55.2,14.1l-45.2,4.2"/>
	<path fill="none" stroke="#D0D3E9" stroke-width="0.3904" stroke-miterlimit="10" d="M80,94.6l6.5,3.1
		c-2.2-0.9,42.2,14.7,41.5,11.6c34.8,7.9,77.4,8.7,118-4.7c0.7-0.2,17.9-3.3,18.9-3.7c5.6-1.9,116.2-18.6,121.7-16.5
		c3.3-0.3,6.6-0.1,9.8-0.3c11-0.9,27.3,3.7,37.5,8l119.6,58c0.7,0.3,14.2,6.9,14.9,7.3l35.8,18c1.7,1.2,37.9,19,39.8,19.9
		c20.6,9.3,43,14.1,65.6,12.5l0.4,0c5.5-4.3,35.4-10.4,36.3-16.4c7.6-4.6,13.8-11.2,18.1-18.9c0,0,0.1-0.1,0.1-0.1
		c11.9-10.2,10-17.1,2.8-20.2c-9.4-4-17.9,1.5-18.9,6.1c0,0-0.7-0.2-0.7-0.2c-11.4-2.5-23.4-0.8-33.9,4.8
		c0.3,0.8-102.7,54.2-102.9,55c-26.5,14-58.7,10.3-81.1-9.1c-4.8,5.3-59.3-34.8-66.5-34.1l-0.2,0c-4.6,0.4-40.3-28-44.9-28.9l-0.2,0
		c-6-1.2-52.6-42.4-56-47.6l-49-50.7l-0.2-0.1c-11.4-3.9-29-9.6-38.9-3.2c-1.9,1.2-4.1,2.1-5.9,3.4c-5-3.9-49.5,43.2-56.5,44.5
		c-22.9,21-50,41.9-78,53c-13.9,5.5-39.9,16.4-55.3,14.6l-45.2,4.7"/>
	<path fill="none" stroke="#CED2E8" stroke-width="0.3904" stroke-miterlimit="10" d="M79.7,97.9L86,101c-2.4-1,41.4,14.3,40.7,11.1
		c34.3,7.4,76.5,7.6,116.9-5.8c0.8-0.3,17.8-3.3,18.8-3.7c5.9-2,115.6-18.5,121.4-16.3c3.3-0.3,6.5,0,9.8-0.3
		c10.9-0.9,27.3,3.8,37.4,8.1l119.3,57.8c0.8,0.4,14.1,6.9,14.8,7.3l35.7,17.9c1.8,1.3,37.7,19,39.7,19.9
		c20.6,9.3,42.9,14.1,65.5,12.5l0.4,0c5.4-4.3,36.7-10.3,37.7-16.2c8-4.6,14.6-11.2,19.2-19.1c0,0,0.1-0.1,0.1-0.1
		c12.6-10.5,10.8-17.6,3.4-20.6c-9.7-4-18.5,1.9-19.2,6.9c0,0-0.7-0.2-0.7-0.2c-11.3-2.5-23.1-0.8-33.5,4.8
		c0.3,0.8-101.5,53.7-101.7,54.5c-26.2,13.9-58.1,10.3-80.1-8.9c-5,5.6-59.4-33.8-67-33l-0.2,0c-4.9,0.5-40.5-27.7-45.3-28.6l-0.2,0
		c-6.4-1.3-52.8-42.2-56.3-47.7l-49-51.1l-0.2-0.1c-11.3-3.8-29-10-38.8-3.8c-1.9,1.2-4.1,2-5.9,3.3c-5.3-4.1-49.8,42.3-57.1,43.7
		c-23.2,20.9-50.3,42-78.3,53.2c-13.7,5.5-40.1,16.9-55.3,15.2l-45.2,5.2"/>
	<path fill="none" stroke="#CCD0E7" stroke-width="0.3904" stroke-miterlimit="10" d="M79.5,101.2l6.1,3c-2.5-1,40.7,13.9,39.9,10.5
		c33.8,6.8,75.6,6.4,115.7-6.9c0.8-0.3,17.7-3.3,18.8-3.7c6.2-2.1,115-18.4,121.1-16c3.3-0.3,6.5,0,9.8-0.3
		c10.8-0.9,27.3,4,37.3,8.2l119.1,57.7c0.8,0.4,14,6.9,14.8,7.3l35.6,17.9c1.9,1.4,37.5,18.9,39.6,19.8c20.5,9.3,42.8,14,65.3,12.5
		l0.4,0c5.3-4.2,38.1-10.2,39.1-16c8.3-4.5,15.3-11.2,20.3-19.2c0,0,0.1-0.1,0.1-0.1c13.4-10.8,11.6-18,4.1-21.1
		c-10.1-4.1-19,2.3-19.5,7.6c0,0-0.7-0.2-0.7-0.2c-11.1-2.4-22.8-0.7-33,4.8c0.3,0.9-100.2,53.1-100.4,54
		c-25.9,13.8-57.4,10.2-79.2-8.7c-5.3,5.9-59.4-32.7-67.4-32l-0.2,0c-5.1,0.5-40.6-27.3-45.6-28.3l-0.2,0
		c-6.7-1.4-52.9-42-56.6-47.8l-49.1-51.5l-0.2-0.1c-11.1-3.8-29-10.5-38.8-4.5c-1.9,1.2-4.1,1.9-6,3.1c-5.6-4.3-50,41.5-57.7,43
		c-23.4,20.7-50.6,42.1-78.7,53.4c-13.5,5.5-40.3,17.5-55.3,15.8l-45.3,5.8"/>
	<path fill="none" stroke="#CACEE6" stroke-width="0.3904" stroke-miterlimit="10" d="M79.2,104.5l6,3c-2.6-1.1,39.9,13.5,39.1,9.9
		c33.3,6.3,74.7,5.3,114.5-8c0.9-0.3,17.6-3.3,18.7-3.7c6.5-2.2,114.4-18.3,120.7-15.8c3.2-0.2,6.5,0.1,9.8-0.2
		c10.6-0.9,27.3,4.1,37.2,8.2L544,155.4c0.9,0.4,13.9,6.8,14.8,7.3l35.5,17.9c2,1.4,37.2,18.8,39.5,19.8c20.5,9.2,42.7,14,65.1,12.5
		l0.4,0c5.3-4.2,39.5-10.1,40.4-15.9c8.7-4.5,16.1-11.2,21.4-19.4c0,0,0.1-0.1,0.1-0.1c14.1-11.1,12.4-18.5,4.7-21.5
		c-10.4-4.1-19.5,2.7-19.8,8.3c0,0-0.7-0.2-0.7-0.2c-11-2.4-22.5-0.7-32.6,4.8c0.3,0.9-98.9,52.6-99.2,53.5
		c-25.6,13.6-56.7,10.2-78.3-8.5c-5.6,6.2-59.5-31.7-67.9-30.9l-0.2,0c-5.4,0.5-40.7-27-46-28l-0.2,0c-7-1.4-53-41.8-56.9-47.9
		l-49.1-51.8l-0.2-0.1c-11-3.7-29-10.9-38.7-5.1c-1.9,1.2-4.1,1.8-6,3c-5.9-4.6-50.2,40.6-58.3,42.2c-23.7,20.6-51,42.1-79.1,53.7
		c-13.4,5.5-40.5,18-55.4,16.3L32,171.5"/>
	<path fill="none" stroke="#C8CCE5" stroke-width="0.3904" stroke-miterlimit="10" d="M78.9,107.8l5.8,3
		c-2.7-1.1,39.2,13.1,38.4,9.3c32.8,5.8,73.8,4.1,113.4-9.1c0.9-0.3,17.5-3.3,18.7-3.7c6.8-2.3,113.7-18.2,120.4-15.6
		c3.2-0.2,6.5,0.1,9.7-0.2c10.5-0.9,27.3,4.2,37.1,8.3l118.5,57.3c0.9,0.4,13.9,6.8,14.7,7.3l35.4,17.9c2.1,1.5,37,18.7,39.4,19.8
		c20.4,9.2,42.6,14,65,12.5l0.4,0c5.2-4.1,40.9-10,41.8-15.7c9.1-4.4,16.8-11.2,22.5-19.5c0,0,0.1-0.1,0.1-0.1
		c14.9-11.4,13.2-18.9,5.3-22c-10.7-4.1-20.1,3.1-20,9.1c0,0-0.7-0.2-0.7-0.2c-10.8-2.3-22.2-0.7-32.2,4.7c0.3,0.9-97.7,52-97.9,53
		c-25.3,13.5-56,10.1-77.4-8.2c-5.8,6.5-59.5-30.7-68.3-29.9l-0.3,0c-5.6,0.5-40.9-26.6-46.4-27.7l-0.2,0
		c-7.4-1.5-53.2-41.6-57.2-48l-49.2-52.2l-0.2-0.1c-10.9-3.7-30.3-13-38.7-5.7c-2.1,0.8-4.1,1.7-6,2.9c-6.2-4.8-50.5,39.8-58.9,41.4
		c-23.9,20.4-51.3,42.2-79.4,53.9c-13.2,5.5-40.8,18.5-55.4,16.9l-45.3,6.9"/>
	<path fill="none" stroke="#C6CAE5" stroke-width="0.3904" stroke-miterlimit="10" d="M78.7,111.1l5.6,2.9
		c-2.9-1.2,38.4,12.7,37.6,8.7c32.3,5.2,72.9,3,112.2-10.2c0.9-0.3,17.4-3.4,18.6-3.8c7.2-2.4,113.1-18.1,120.1-15.4
		c3.2-0.2,6.5,0.2,9.7-0.1c10.4-0.9,27.3,4.3,37,8.3l118.2,57.1c1,0.4,13.8,6.8,14.7,7.3l35.3,17.8c2.2,1.6,36.8,18.6,39.2,19.7
		c20.4,9.2,42.5,13.9,64.8,12.5l0.4,0c5.1-4,42.3-9.9,43.2-15.5c9.5-4.4,17.6-11.2,23.6-19.6c0,0,0.1-0.1,0.1-0.1
		c15.7-11.7,14-19.4,5.9-22.4c-11-4.1-20.6,3.5-20.3,9.8c0,0-0.7-0.2-0.7-0.1c-10.7-2.3-21.9-0.6-31.7,4.7
		c0.4,1-96.4,51.5-96.7,52.5c-25,13.4-55.4,10.1-76.5-8c-6.1,6.8-59.6-29.7-68.8-28.8l-0.3,0c-5.9,0.6-41-26.3-46.8-27.4l-0.2,0
		c-7.7-1.6-53.3-41.5-57.5-48.1l-49.2-52.6l-0.2-0.1c-10.7-3.6-30.3-13.6-38.6-6.3c-2.1,0.7-4.1,1.6-6.1,2.8
		c-6.4-5-50.7,38.9-59.6,40.6c-24.2,20.3-51.6,42.3-79.8,54.2c-13,5.5-41,19.1-55.4,17.4l-45.3,7.4"/>
	<path fill="none" stroke="#C4C8E4" stroke-width="0.3904" stroke-miterlimit="10" d="M78.4,114.4l5.4,2.9
		c-3-1.2,37.7,12.2,36.8,8.1c31.7,4.7,72,1.8,111-11.3c1-0.3,17.2-3.4,18.6-3.8c7.5-2.5,112.5-17.9,119.8-15.1
		c3.2-0.2,6.5,0.2,9.7-0.1c10.2-0.9,27.4,4.4,36.9,8.4l118,57c1,0.4,13.7,6.7,14.7,7.3l35.2,17.8c2.3,1.6,36.6,18.6,39.1,19.7
		c20.3,9.2,42.4,13.9,64.6,12.5l0.4,0c5.1-4,43.7-9.8,44.6-15.4c9.8-4.3,18.3-11.2,24.7-19.8c0,0,0.1-0.1,0.1-0.1
		c16.4-12,14.8-19.8,6.5-22.9c-11.4-4.2-21.1,3.9-20.6,10.5c0,0-0.7-0.2-0.7-0.1c-10.5-2.2-21.6-0.6-31.3,4.7
		c0.4,1-95.2,50.9-95.4,52c-24.7,13.3-54.7,10-75.6-7.8c-6.4,7.1-59.6-28.7-69.3-27.8l-0.3,0c-6.1,0.6-41.2-25.9-47.2-27.1l-0.2,0
		c-8-1.6-53.4-41.3-57.8-48.2l-49.3-53l-0.2-0.1C306,59,286.2,48.5,278,55.7c-2.1,0.7-4.2,1.6-6.1,2.6c-6.7-5.2-50.9,38-60.2,39.8
		c-24.4,20.1-52,42.3-80.1,54.4c-12.8,5.5-41.2,19.6-55.4,18l-45.4,8"/>
	<path fill="none" stroke="#C2C7E3" stroke-width="0.3904" stroke-miterlimit="10" d="M78.1,117.7l5.3,2.9
		c-3.1-1.3,36.9,11.8,36,7.6c31.2,4.2,71.1,0.7,109.8-12.4c1-0.3,17.1-3.4,18.5-3.8c7.8-2.6,111.9-17.8,119.5-14.9
		c3.2-0.2,6.4,0.2,9.6-0.1c10.1-0.9,27.4,4.5,36.8,8.4l117.7,56.8c1,0.5,13.7,6.7,14.7,7.3l35.1,17.8c2.4,1.7,36.4,18.5,39,19.7
		c20.3,9.1,42.3,13.9,64.5,12.4l0.4,0c5-3.9,45.1-9.7,46-15.2c10.2-4.3,19.1-11.2,25.8-19.9c0,0,0.1-0.1,0.1-0.1
		c17.2-12.3,15.6-20.3,7.1-23.3c-11.7-4.2-21.7,4.3-20.9,11.3c0,0-0.7-0.1-0.7-0.1c-10.4-2.2-21.3-0.5-30.9,4.7
		c0.4,1.1-93.9,50.4-94.2,51.5c-24.3,13.1-54,10-74.6-7.6c-6.6,7.4-59.7-27.7-69.7-26.7l-0.3,0c-6.4,0.6-41.3-25.6-47.6-26.8
		l-0.2-0.1c-8.4-1.7-53.5-41.1-58.2-48.3l-49.3-53.4l-0.2-0.1c-10.4-3.5-30.4-14.6-38.5-7.5c-2.1,0.6-4.2,1.5-6.1,2.5
		c-7-5.4-51.1,37.2-60.8,39c-24.7,20-52.3,42.4-80.5,54.6c-12.6,5.5-41.4,20.2-55.5,18.5l-45.4,8.5"/>
	<path fill="none" stroke="#C0C5E2" stroke-width="0.3904" stroke-miterlimit="10" d="M77.9,121l5.1,2.8c-3.2-1.3,36.2,11.4,35.2,7
		c30.7,3.6,70.2-0.5,108.7-13.5c1.1-0.4,17-3.4,18.5-3.8c8.1-2.7,111.3-17.7,119.2-14.7c3.2-0.2,6.4,0.3,9.6,0
		c10-0.9,27.4,4.6,36.7,8.5l117.4,56.6c1.1,0.5,13.6,6.6,14.6,7.2l35,17.7c2.5,1.8,36.2,18.4,38.9,19.6
		c20.2,9.1,42.2,13.8,64.3,12.4l0.4,0c4.9-3.9,46.5-9.6,47.3-15c10.6-4.2,19.8-11.2,26.9-20.1c0,0,0.1-0.1,0.1-0.1
		c17.9-12.6,16.4-20.8,7.8-23.8c-12-4.2-22.2,4.7-21.2,12c0,0-0.7-0.1-0.7-0.1c-10.2-2.2-21-0.5-30.4,4.7c0.4,1.1-92.6,49.8-92.9,51
		c-24,13-53.3,9.9-73.7-7.4c-6.9,7.7-59.8-26.7-70.2-25.7l-0.3,0c-6.7,0.6-41.4-25.2-48-26.5l-0.2-0.1c-8.7-1.8-53.7-40.9-58.5-48.4
		l-49.4-53.8l-0.2-0.1c-10.3-3.5-30.5-15.1-38.5-8.2c-2.1,0.6-4.2,1.4-6.2,2.4c-7.3-5.6-51.4,36.3-61.4,38.3
		c-24.9,19.8-52.6,42.4-80.8,54.9c-12.4,5.5-41.6,20.7-55.5,19.1L30,183.2"/>
	<path fill="none" stroke="#BEC3E1" stroke-width="0.3904" stroke-miterlimit="10" d="M77.6,124.3l4.9,2.8
		c-3.3-1.4,35.4,11,34.4,6.4c30.2,3.1,69.3-1.6,107.5-14.6c1.1-0.4,16.9-3.4,18.4-3.9c8.4-2.8,110.7-17.6,118.9-14.4
		c3.2-0.2,6.4,0.3,9.6,0c9.8-1,27.4,4.7,36.6,8.6L525,165.6c1.1,0.5,13.5,6.6,14.6,7.2l34.9,17.7c2.6,1.8,35.9,18.3,38.8,19.6
		c20.2,9.1,42.1,13.8,64.1,12.4l0.4,0c4.9-3.8,47.9-9.5,48.7-14.8c10.9-4.2,20.6-11.2,28-20.2c0,0,0.1-0.1,0.1-0.1
		c18.7-13,17.2-21.2,8.4-24.2c-12.3-4.2-22.7,5.1-21.5,12.7c0,0-0.7-0.1-0.7-0.1c-10.1-2.1-20.7-0.5-30,4.7
		c0.4,1.2-91.4,49.3-91.7,50.5c-23.7,12.9-52.6,9.9-72.8-7.2c-7.2,8-59.8-25.7-70.6-24.6l-0.3,0c-6.9,0.7-41.6-24.9-48.4-26.2
		l-0.3-0.1c-9-1.8-53.8-40.7-58.8-48.5l-49.4-54.2l-0.2-0.1c-10.2-3.4-30.6-15.6-38.4-8.8c-2.1,0.6-4.2,1.3-6.2,2.2
		c-7.6-5.9-51.6,35.5-62,37.5c-25.2,19.7-52.9,42.5-81.2,55.1c-12.2,5.4-41.8,21.2-55.5,19.7l-45.4,9.6"/>
	<path fill="none" stroke="#BCC1E0" stroke-width="0.3904" stroke-miterlimit="10" d="M77.3,127.6l4.7,2.7
		c-3.5-1.4,34.7,10.6,33.6,5.8c29.7,2.6,68.3-2.8,106.3-15.7c1.1-0.4,16.8-3.4,18.3-3.9c8.7-2.9,110.1-17.5,118.6-14.2
		c3.2-0.1,6.4,0.4,9.5,0.1c9.7-1,27.4,4.8,36.5,8.6l116.8,56.3c1.2,0.5,13.5,6.6,14.6,7.2l34.8,17.7c2.7,1.9,35.7,18.2,38.7,19.6
		c20.1,9,41.9,13.8,64,12.4l0.4,0c4.8-3.8,49.2-9.4,50.1-14.7c11.3-4.1,21.3-11.2,29.1-20.4c0,0,0.1-0.1,0.1-0.1
		c19.4-13.3,18-21.7,9-24.7c-12.7-4.2-23.3,5.5-21.7,13.5c0,0-0.6-0.1-0.6-0.1c-9.9-2.1-20.4-0.4-29.6,4.7
		c0.4,1.2-90.1,48.8-90.4,50c-23.4,12.7-52,9.8-71.9-6.9c-7.4,8.3-59.9-24.7-71.1-23.6l-0.3,0c-7.2,0.7-41.7-24.5-48.8-25.9
		l-0.3-0.1c-9.4-1.9-53.9-40.5-59.1-48.6l-49.5-54.6l-0.2-0.1c-10-3.4-30.6-16.2-38.4-9.4c-2.1,0.5-4.2,1.2-6.2,2.1
		c-7.8-6.1-51.8,34.6-62.6,36.7c-25.4,19.5-53.2,42.6-81.6,55.4c-12,5.4-42,21.8-55.5,20.2l-45.5,10.1"/>
	<path fill="none" stroke="#BAC0DF" stroke-width="0.3904" stroke-miterlimit="10" d="M77.1,130.9l4.6,2.7
		c-3.6-1.5,33.9,10.2,32.8,5.2c29.2,2,67.4-3.9,105.2-16.8c1.2-0.4,16.7-3.4,18.3-3.9c9-3,109.5-17.4,118.3-14
		c3.2-0.1,6.4,0.4,9.5,0.1c9.6-1,27.4,4.9,36.4,8.7l116.6,56.1c1.2,0.5,13.4,6.5,14.5,7.2l34.7,17.6c2.8,2,35.5,18.2,38.6,19.5
		c20.1,9,41.8,13.7,63.8,12.4l0.4,0c4.7-3.7,50.6-9.3,51.5-14.5c11.7-4.1,22.1-11.2,30.2-20.5c0,0,0.1-0.1,0.1-0.1
		c20.2-13.6,18.8-22.1,9.6-25.1c-13-4.3-25.2,6.4-22,14.2c0,0-0.6-0.1-0.6-0.1c-9.8-2-20.1-0.4-29.1,4.7
		c0.5,1.2-88.9,48.2-89.2,49.5c-23.1,12.6-51.3,9.8-71-6.7c-7.7,8.6-59.9-23.7-71.5-22.5l-0.3,0c-7.4,0.7-41.9-24.2-49.2-25.6
		l-0.3-0.1c-9.7-2-54.1-40.4-59.4-48.7l-49.5-54.9l-0.2-0.1c-9.9-3.3-30.7-16.7-38.3-10c-2.2,0.5-4.2,1.1-6.2,2
		c-8.1-6.3-52.1,33.8-63.2,35.9c-25.7,19.4-53.5,42.6-81.9,55.6c-11.8,5.4-42.2,22.3-55.6,20.8l-45.5,10.7"/>
	<path fill="none" stroke="#B8BEDF" stroke-width="0.3904" stroke-miterlimit="10" d="M76.8,134.2l4.4,2.7c-3.7-1.5,33.2,9.8,32,4.7
		c28.6,1.5,66.5-5.1,104-17.9c1.2-0.4,16.6-3.4,18.2-3.9c9.3-3.1,108.8-17.3,118-13.8c3.2-0.1,6.3,0.5,9.5,0.2
		c9.4-1,27.5,5.1,36.3,8.7l116.3,55.9c1.2,0.6,13.3,6.5,14.5,7.2l34.5,17.6c2.9,2,35.3,18.1,38.5,19.5c20,9,41.7,13.7,63.6,12.4
		l0.4,0c4.7-3.7,52-9.3,52.8-14.3c12.1-4,22.8-11.2,31.3-20.6c0,0,0.1-0.1,0.1-0.1c21-13.9,19.6-22.6,10.2-25.6
		c-13.3-4.3-25.7,6.8-22.3,14.9c0,0-0.6-0.1-0.6-0.1c-9.6-2-19.8-0.3-28.7,4.7c0.5,1.3-87.6,47.7-88,49c-22.8,12.5-50.6,9.7-70-6.5
		c-8,8.9-60-22.7-72-21.5l-0.3,0c-7.7,0.7-42-23.8-49.6-25.3l-0.3-0.1c-10-2-54.2-40.2-59.7-48.8l-49.6-55.3l-0.2-0.1
		c-9.8-3.3-30.7-17.2-38.3-10.6c-2.2,0.4-4.3,1-6.3,1.9c-8.4-6.5-52.3,32.9-63.9,35.1c-25.9,19.2-53.8,42.7-82.3,55.8
		c-11.6,5.4-42.5,22.8-55.6,21.3l-45.5,11.2"/>
	<path fill="none" stroke="#B6BCDE" stroke-width="0.3904" stroke-miterlimit="10" d="M76.5,137.5l4.2,2.6
		c-3.8-1.6,32.4,9.4,31.2,4.1c28.1,1,65.6-6.2,102.8-19c1.3-0.4,16.5-3.4,18.2-4c9.6-3.2,108.2-17.2,117.7-13.5
		c3.1-0.1,6.3,0.5,9.4,0.2c9.3-1,27.5,5.2,36.1,8.8l116,55.7c1.3,0.6,13.2,6.5,14.5,7.2l34.4,17.6c3,2.1,35.1,18,38.4,19.5
		c20,9,41.6,13.7,63.5,12.4l0.4,0c4.6-3.6,53.4-9.2,54.2-14.2c12.4-4,23.6-11.2,32.4-20.8c0,0,0.1-0.1,0.1-0.1
		c21.7-14.2,20.4-23,10.8-26c-13.6-4.3-26.2,7.2-22.6,15.7c0,0-0.6-0.1-0.6-0.1c-9.5-1.9-19.5-0.3-28.3,4.6
		c0.5,1.3-86.4,47.1-86.7,48.5c-22.5,12.3-49.9,9.7-69.1-6.3c-8.2,9.2-60.1-21.7-72.5-20.5l-0.3,0c-7.9,0.8-42.1-23.5-50-25
		l-0.3-0.1c-10.4-2.1-54.3-40-60-48.9L321,80.2l-0.2-0.1c-9.6-3.3-30.8-17.7-38.2-11.2c-2.2,0.4-4.3,1-6.3,1.7
		c-8.7-6.7-52.5,32-64.5,34.4c-26.2,19.1-54.2,42.8-82.6,56.1c-11.4,5.4-42.7,23.4-55.6,21.9L28,194.8"/>
	<path fill="none" stroke="#B4BADD" stroke-width="0.3904" stroke-miterlimit="10" d="M76.3,140.8l4.1,2.6c-4-1.6,31.7,9,30.4,3.5
		c27.6,0.4,64.7-7.4,101.7-20.1c1.3-0.4,16.4-3.4,18.1-4c10-3.3,107.6-17.1,117.4-13.3c3.1-0.1,6.3,0.6,9.4,0.2
		c9.2-1,27.5,5.3,36,8.9l115.7,55.6c1.3,0.6,13.2,6.4,14.4,7.2l34.3,17.6c3.1,2.2,34.9,17.9,38.3,19.5c19.9,8.9,41.5,13.6,63.3,12.4
		l0.4,0c4.5-3.6,54.8-9.1,55.6-14c12.8-4,24.3-11.2,33.5-20.9c0,0,0.1-0.1,0.1-0.2c22.5-14.5,21.2-23.5,11.5-26.5
		c-14-4.3-26.7,7.6-22.9,16.4c0,0-0.6-0.1-0.6-0.1c-9.3-1.9-19.2-0.3-27.9,4.6c0.5,1.4-85.1,46.6-85.5,48
		c-22.2,12.2-49.3,9.6-68.2-6.1c-8.5,9.5-60.1-20.6-72.9-19.4l-0.4,0c-8.2,0.8-42.3-23.1-50.3-24.7l-0.3-0.1
		c-10.7-2.2-54.5-39.8-60.4-49l-49.7-56.1l-0.2-0.1c-9.5-3.2-30.8-18.3-38.2-11.9c-2.2,0.3-4.3,0.9-6.3,1.6
		c-9-6.9-52.7,31.2-65.1,33.6c-26.4,18.9-54.5,42.8-83,56.3c-11.3,5.3-42.9,23.9-55.6,22.4l-45.6,12.3"/>
	<path fill="none" stroke="#B2B9DC" stroke-width="0.3904" stroke-miterlimit="10" d="M76,144.1l3.9,2.6c-4.1-1.7,30.9,8.6,29.7,2.9
		c27.1-0.1,63.8-8.5,100.5-21.2c1.3-0.5,16.3-3.4,18.1-4c10.3-3.4,107-16.9,117.1-13.1c3.1-0.1,6.3,0.6,9.4,0.3
		c9-1,27.5,5.4,35.9,8.9L506,175.9c1.4,0.6,13.1,6.4,14.4,7.1l34.2,17.5c3.1,2.2,34.7,17.9,38.2,19.4c19.9,8.9,41.4,13.6,63.1,12.4
		l0.4,0c4.5-3.5,56.2-9,57-13.8c13.2-3.9,25.1-11.2,34.6-21.1c0,0,0.2-0.1,0.1-0.2c23.2-14.8,22-23.9,12.1-26.9
		c-14.3-4.3-27.2,8-23.2,17.2c0,0-0.6-0.1-0.6-0.1c-9.2-1.8-18.9-0.2-27.4,4.6c0.5,1.4-83.8,46-84.2,47.4
		c-21.9,12.1-48.6,9.6-67.3-5.9c-8.8,9.8-60.2-19.6-73.4-18.4l-0.4,0c-8.4,0.8-42.4-22.8-50.7-24.4l-0.3-0.1
		c-11.1-2.2-54.6-39.6-60.7-49.1l-49.7-56.5l-0.2-0.1c-9.3-3.2-30.9-18.8-38.1-12.5c-2.2,0.3-4.3,0.8-6.4,1.5
		c-9.2-7.2-53,30.3-65.7,32.8c-26.7,18.7-54.8,42.9-83.3,56.6c-11.1,5.3-43.1,24.4-55.7,23l-45.6,12.9"/>
	<path fill="none" stroke="#B1B7DB" stroke-width="0.3904" stroke-miterlimit="10" d="M75.7,147.5l3.7,2.5
		c-4.2-1.7,30.2,8.1,28.9,2.3c26.6-0.6,62.9-9.7,99.3-22.3c1.4-0.5,16.2-3.4,18-4c10.6-3.5,106.4-16.8,116.8-12.8
		c3.1-0.1,6.2,0.7,9.4,0.3c8.9-1,27.5,5.5,35.8,9l115.2,55.2c1.4,0.6,13,6.4,14.4,7.1l34.1,17.5c3.2,2.3,34.4,17.8,38,19.4
		c19.8,8.9,41.3,13.5,63,12.4l0.4,0c4.4-3.5,57.6-8.9,58.3-13.7c13.5-3.9,25.8-11.2,35.7-21.2c0,0,0.2-0.1,0.2-0.2
		c24-15.1,22.8-24.4,12.7-27.4c-14.6-4.4-27.7,8.4-23.5,17.9c0,0-0.6-0.1-0.6-0.1c-9.1-1.8-18.6-0.2-27,4.6
		c0.5,1.4-82.6,45.5-83,46.9c-21.6,12-47.9,9.5-66.4-5.6c-9,10.1-60.2-18.6-73.8-17.3l-0.4,0c-8.7,0.8-42.6-22.4-51.1-24.1l-0.3-0.1
		c-11.4-2.3-54.7-39.4-61-49.2l-49.8-56.9l-0.2-0.1c-9.2-3.1-31-19.3-38.1-13.1c-2.2,0.3-4.3,0.7-6.4,1.3
		c-9.5-7.4-53.2,29.5-66.3,32c-26.9,18.6-55.1,42.9-83.7,56.8c-10.9,5.3-43.3,25-55.7,23.6l-45.6,13.4"/>
	<path fill="none" stroke="#AFB5DA" stroke-width="0.3904" stroke-miterlimit="10" d="M75.5,150.8l3.5,2.5
		c-4.3-1.8,29.4,7.7,28.1,1.8c26.1-1.2,62-10.8,98.2-23.4c1.4-0.5,16-3.4,18-4.1c10.9-3.6,105.8-16.7,116.4-12.6
		c3.1,0,6.2,0.7,9.3,0.4c8.8-1,27.5,5.6,35.7,9l114.9,55c1.5,0.7,13,6.3,14.3,7.1l34,17.5c3.3,2.4,34.2,17.7,37.9,19.4
		c19.8,8.8,41.2,13.5,62.8,12.4l0.4,0c4.3-3.4,59-8.8,59.7-13.5c13.9-3.8,26.6-11.2,36.8-21.3c0,0,0.2-0.1,0.2-0.2
		c24.7-15.4,23.6-24.8,13.3-27.8c-15-4.4-28.2,8.8-23.7,18.6c0,0-0.6-0.1-0.6-0.1c-8.9-1.7-18.3-0.1-26.6,4.6
		c0.6,1.5-81.3,44.9-81.7,46.4c-21.3,11.8-47.2,9.5-65.4-5.4c-9.3,10.4-60.3-17.6-74.3-16.3l-0.4,0c-9,0.9-42.7-22.1-51.5-23.8
		l-0.3-0.1c-11.7-2.4-54.8-39.2-61.3-49.3l-49.8-57.3l-0.2-0.1c-9.1-3.1-31-19.8-38-13.7c-2.2,0.2-4.3,0.6-6.4,1.2
		c-9.8-7.6-53.4,28.6-66.9,31.2c-27.2,18.4-55.4,43-84,57c-10.7,5.2-43.5,25.5-55.7,24.1l-45.6,14"/>
	<path fill="none" stroke="#ADB4D9" stroke-width="0.3904" stroke-miterlimit="10" d="M75.2,154.1l3.4,2.4
		c-4.5-1.8,28.6,7.3,27.3,1.2c25.5-1.7,61.1-12,97-24.5c1.5-0.5,15.9-3.4,17.9-4.1c11.2-3.7,105.2-16.6,116.1-12.4
		c3.1,0,6.2,0.8,9.3,0.4c8.6-1,27.5,5.7,35.6,9.1L496.4,181c1.5,0.7,12.9,6.3,14.3,7.1l33.9,17.4c3.4,2.5,34,17.6,37.8,19.3
		c19.7,8.8,41.1,13.5,62.6,12.4l0.4,0c4.3-3.4,60.3-8.7,61.1-13.3c14.3-3.8,27.3-11.2,37.9-21.5c0,0,0.2-0.1,0.2-0.2
		c25.5-15.8,24.4-25.3,13.9-28.3c-15.3-4.4-28.7,9.3-24,19.4c0,0-0.6-0.1-0.6-0.1c-8.8-1.7-18-0.1-26.1,4.6
		c0.6,1.5-80.1,44.4-80.5,45.9c-20.9,11.7-46.5,9.4-64.5-5.2c-9.6,10.7-60.3-16.6-74.8-15.2l-0.4,0c-9.2,0.9-42.8-21.7-51.9-23.5
		l-0.3-0.1c-12.1-2.4-55-39.1-61.6-49.4L324,92.8l-0.2-0.1c-8.9-3-31.1-20.4-38-14.3c-2.2,0.2-4.4,0.5-6.4,1.1
		c-10.1-7.8-53.7,27.8-67.5,30.4c-27.4,18.3-58.7,38.2-84.4,57.3c-11.3,3.3-43.7,26-55.8,24.7L26,206.4"/>
	<path fill="none" stroke="#ABB2D9" stroke-width="0.3904" stroke-miterlimit="10" d="M74.9,157.4l3.2,2.4
		c-4.6-1.9,27.9,6.9,26.5,0.6c25-2.2,60.2-13.1,95.8-25.6c1.5-0.5,15.8-3.4,17.9-4.1c11.5-3.8,104.6-16.5,115.8-12.2
		c3.1,0,6.2,0.8,9.3,0.4c8.5-1,27.6,5.8,35.5,9.2l114.3,54.7c1.5,0.7,12.8,6.3,14.3,7.1l33.8,17.4c3.5,2.5,33.8,17.5,37.7,19.3
		c19.7,8.8,41,13.4,62.5,12.4l0.4,0c4.2-3.3,61.7-8.6,62.5-13.1c14.7-3.7,28.1-11.2,39-21.6c0,0,0.2-0.1,0.2-0.2
		c26.3-16.1,25.2-25.7,14.5-28.7c-15.6-4.4-29.3,9.7-24.3,20.1c0,0-0.6-0.1-0.6-0.1c-8.6-1.7-17.7-0.1-25.7,4.6
		c0.6,1.6-78.8,43.8-79.2,45.4c-20.6,11.6-45.9,9.4-63.6-5c-9.8,11-60.4-15.6-75.2-14.2l-0.4,0c-9.5,0.9-43-21.4-52.3-23.2l-0.3-0.1
		c-12.4-2.5-55.1-38.9-61.9-49.5l-49.9-58.1l-0.2-0.1c-8.8-3-31.1-20.9-37.9-14.9c-2.2,0.1-4.4,0.4-6.5,0.9
		c-10.4-8-53.9,26.9-68.2,29.7c-27.7,18.1-59.1,38.1-84.8,57.5c-11.1,3.2-43.9,26.6-55.8,25.2l-45.7,15.1"/>
	<path fill="none" stroke="#A9B0D8" stroke-width="0.3904" stroke-miterlimit="10" d="M74.7,160.7l3,2.4c-4.7-2,27.1,6.5,25.7,0
		c24.5-2.8,59.2-14.3,94.6-26.7c1.5-0.5,15.7-3.4,17.8-4.1c11.8-3.9,104-16.4,115.5-11.9c3.1,0,6.2,0.8,9.2,0.5
		c8.4-1,27.6,5.9,35.4,9.2l114.1,54.5c1.6,0.7,12.7,6.2,14.2,7.1l33.7,17.4c3.6,2.6,33.6,17.5,37.6,19.3
		c19.6,8.8,40.8,13.4,62.3,12.4l0.4,0c4.1-3.3,63.1-8.5,63.8-13c15-3.7,28.8-11.2,40.1-21.8c0,0,0.2-0.1,0.2-0.2
		c27-16.4,26-26.2,15.1-29.2c-15.9-4.4-29.8,10.1-24.6,20.8c0,0-0.6-0.1-0.5-0.1c-8.5-1.6-17.4,0-25.3,4.6
		c0.6,1.6-77.5,43.3-78,44.9c-20.3,11.4-45.2,9.3-62.7-4.8c-10.1,11.3-60.5-14.6-75.7-13.1l-0.4,0c-9.7,0.9-43.1-21-52.7-22.9
		l-0.4-0.1c-12.7-2.6-55.2-38.7-62.2-49.6l-50-58.4l-0.2-0.1c-8.7-2.9-31.2-21.4-37.9-15.5c-2.2,0.1-4.4,0.4-6.5,0.8
		c-10.6-8.3-54.1,26.1-68.8,28.9c-27.9,18-59.5,38-85.1,57.8c-10.9,3.2-44.1,27.1-55.8,25.8l-45.7,15.6"/>
	<path fill="none" stroke="#A7AFD7" stroke-width="0.3904" stroke-miterlimit="10" d="M74.4,164l2.9,2.3c-4.8-2,26.4,6.1,24.9-0.6
		c24-3.3,58.3-15.4,93.5-27.8c1.6-0.6,15.6-3.4,17.8-4.2c12.1-4,103.3-16.3,115.2-11.7c3.1,0,6.1,0.9,9.2,0.5
		c8.2-1,27.6,6.1,35.3,9.3l113.8,54.3c1.6,0.7,12.7,6.2,14.2,7.1l33.6,17.3c3.7,2.7,33.4,17.4,37.5,19.2
		c19.6,8.7,40.7,13.4,62.1,12.4l0.4,0c4.1-3.2,64.5-8.4,65.2-12.8c15.4-3.6,29.6-11.2,41.2-21.9c0,0,0.2-0.1,0.2-0.2
		c27.8-16.7,26.8-26.6,15.8-29.6c-16.3-4.5-30.3,10.5-24.9,21.6c0,0-0.5-0.1-0.5-0.1c-8.3-1.6-17.1,0-24.8,4.5
		c0.6,1.7-76.3,42.8-76.7,44.4c-20,11.3-44.5,9.3-61.8-4.6c-10.4,11.6-60.5-13.6-76.1-12.1l-0.4,0c-10,1-43.3-20.7-53.1-22.6
		l-0.4-0.1c-13.1-2.6-55.4-38.5-62.6-49.7l-50-58.8l-0.2-0.1c-8.5-2.9-31.3-21.9-37.8-16.2c-2.2,0-4.4,0.3-6.5,0.7
		c-10.9-8.5-54.4,25.2-69.4,28.1c-28.2,17.8-59.9,38-85.5,58c-10.7,3.1-44.4,27.7-55.8,26.3l-45.7,16.1"/>
	<path fill="none" stroke="#A6ADD6" stroke-width="0.3904" stroke-miterlimit="10" d="M74.2,167.3l2.7,2.3c-5-2.1,25.6,5.7,24.1-1.1
		c23.5-3.8,57.4-16.6,92.3-28.9c1.6-0.6,15.5-3.5,17.7-4.2c12.4-4.1,102.7-16.2,114.9-11.5c3.1,0,6.1,0.9,9.2,0.6
		c8.1-1,27.6,6.2,35.2,9.3l113.5,54.2c1.7,0.7,12.6,6.2,14.2,7.1l33.5,17.3c3.8,2.7,33.1,17.3,37.4,19.2c19.5,8.7,40.6,13.3,62,12.4
		l0.4,0c4-3.2,65.9-8.3,66.6-12.6c15.8-3.6,30.3-11.2,42.3-22.1c0,0,0.2-0.2,0.2-0.2c28.5-17,27.6-27,16.4-30.1
		c-16.6-4.5-30.8,10.9-25.2,22.3c0,0-0.5-0.1-0.5-0.1c-8.2-1.5-16.8,0.1-24.4,4.5c0.6,1.7-75,42.2-75.5,43.9
		c-19.7,11.2-43.8,9.3-60.9-4.3c-10.6,11.9-60.6-12.6-76.6-11l-0.4,0c-10.2,1-43.4-20.3-53.5-22.3l-0.4-0.1
		c-13.4-2.7-55.5-38.3-62.9-49.8l-50.1-59.2l-0.2-0.1c-8.4-2.8-31.3-22.4-37.8-16.8c-2.2,0-4.4,0.2-6.6,0.6
		c-11.2-8.7-54.6,24.3-70,27.3c-28.4,17.7-60.3,37.9-85.8,58.3c-10.6,3.1-44.6,28.2-55.9,26.9l-45.7,16.7"/>
	<path fill="none" stroke="#A4ABD5" stroke-width="0.3904" stroke-miterlimit="10" d="M73.9,170.6l2.5,2.3
		c-5.1-2.1,24.9,5.3,23.3-1.7c23-4.4,56.5-17.7,91.1-30c1.7-0.6,15.4-3.5,17.6-4.2c12.8-4.2,102.1-16.1,114.6-11.2
		c3,0.1,6.1,1,9.1,0.6c7.9-1,27.6,6.3,35.1,9.4l113.2,54c1.7,0.8,12.5,6.1,14.2,7l33.4,17.3c3.9,2.8,32.9,17.2,37.3,19.2
		c19.5,8.7,40.5,13.3,61.8,12.4l0.4,0c3.9-3.1,67.3-8.2,68-12.5c16.2-3.5,31.1-11.2,43.4-22.2c0,0,0.2-0.2,0.2-0.2
		c29.3-17.3,28.4-27.5,17-30.5c-16.9-4.5-31.3,11.3-25.5,23c0,0-0.5-0.1-0.5-0.1c-8-1.5-16.5,0.1-24,4.5
		c0.6,1.7-73.8,41.7-74.2,43.4c-19.4,11-43.1,9.2-59.9-4.1c-10.9,12.2-60.6-11.6-77-10l-0.5,0c-10.5,1-43.5-19.9-53.9-22l-0.4-0.1
		c-13.7-2.8-55.6-38.1-63.2-49.9L327,105.3l-0.2-0.1c-8.2-2.8-31.4-23-37.7-17.4c-2.2,0-4.4,0.1-6.6,0.4
		c-11.5-8.9-54.8,23.5-70.6,26.5c-28.7,17.5-60.8,37.8-86.2,58.5c-10.4,3-44.8,28.7-55.9,27.5L24,218.1"/>
	<path fill="none" stroke="#A2AAD4" stroke-width="0.3904" stroke-miterlimit="10" d="M73.6,173.9l2.3,2.2
		c-5.2-2.2,24.1,4.9,22.5-2.3c22.4-4.9,55.6-18.9,90-31.1c1.7-0.6,15.3-3.5,17.6-4.2c13.1-4.3,100.9-13.7,114.3-11
		c3,0.6,6.1,1,9.1,0.6c7.8-1,27.6,6.4,35,9.4l113,53.8c1.7,0.8,12.5,6.1,14.1,7l33.3,17.3c4,2.9,32.7,17.1,37.2,19.1
		c19.4,8.6,40.4,13.3,61.6,12.4l0.4,0c3.9-3.1,68.7-8.1,69.4-12.3c16.5-3.5,31.8-11.2,44.5-22.3c0,0,0.2-0.2,0.2-0.2
		c30-17.6,29.1-27.9,17.6-31c-17.2-4.5-31.8,11.7-25.7,23.8c0,0-0.5-0.1-0.5-0.1c-7.9-1.4-16.3,0.1-23.6,4.5
		c0.7,1.8-72.5,41.1-73,42.9c-19.1,10.9-42.5,9.2-59-3.9c-11.2,12.5-60.7-10.6-77.5-8.9l-0.5,0c-10.7,1-43.7-19.6-54.3-21.7
		l-0.4-0.1c-14.1-2.8-55.8-38-63.5-50l-50.2-60l-0.2-0.1c-8.1-2.7-31.4-23.5-37.7-18c-2.2-0.1-4.5,0-6.6,0.3
		c-11.8-9.1-55.8,19.9-71.2,25.8c-31.5,12.1-61.2,37.8-86.5,58.7c-10.2,3-45,29.3-55.9,28l-45.8,17.8"/>
	<path fill="none" stroke="#A0A8D4" stroke-width="0.3904" stroke-miterlimit="10" d="M73.4,177.2l2.2,2.2
		c-5.3-2.2,23.4,4.5,21.7-2.9c21.9-5.4,54.7-20,88.8-32.2c1.7-0.6,15.2-3.5,17.5-4.3c13.4-4.4,100.2-13.5,114-10.8
		c3,0.6,6.1,1.1,9.1,0.7c7.7-1,27.7,6.5,34.9,9.5L474.2,193c1.8,0.8,12.4,6,14.1,7l33.2,17.2c4.1,2.9,32.5,17.1,37.1,19.1
		c19.4,8.6,40.3,13.2,61.5,12.4l0.4,0c3.8-3,70.1-8,70.7-12.1c16.9-3.4,32.6-11.2,45.6-22.5c0,0,0.2-0.2,0.2-0.2
		c30.8-17.9,29.9-28.4,18.2-31.4c-17.6-4.5-32.3,12.1-26,24.5c0,0-0.5-0.1-0.5-0.1c-7.7-1.4-16,0.2-23.1,4.5
		c0.7,1.8-71.2,40.6-71.7,42.4c-18.8,10.8-41.8,9.1-58.1-3.7c-11.4,12.8-60.7-9.5-78-7.9l-0.5,0c-11,1.1-43.8-19.2-54.6-21.4
		l-0.4-0.1c-14.4-2.9-55.9-37.8-63.8-50.1l-50.2-60.4l-0.2-0.1c-8-2.7-31.5-24-37.7-18.6c-2.2-0.1-4.5-0.1-6.6,0.2
		c-12-9.3-56.1,19-71.8,25c-31.7,12-61.6,37.7-86.9,59c-10.1,2.9-45.2,29.8-55.9,28.6l-45.8,18.3"/>
	<path fill="none" stroke="#9EA7D3" stroke-width="0.3904" stroke-miterlimit="10" d="M73.1,180.5l2,2.1c-5.5-2.3,22.6,4,21-3.5
		c21.4-6,53.8-21.2,87.6-33.3c1.8-0.6,15.1-3.5,17.5-4.3c13.7-4.5,99.6-13.4,113.7-10.6c3,0.6,6,1.1,9.1,0.7
		c7.5-1,27.7,6.6,34.7,9.6L471,194.7c1.8,0.8,12.3,6,14.1,7l33.1,17.2c4.2,3,32.3,17,37,19.1c19.3,8.6,40.2,13.2,61.3,12.4l0.4,0
		c3.7-3,71.4-7.9,72.1-12c17.3-3.4,33.3-11.2,46.7-22.6c0,0,0.2-0.2,0.2-0.2c31.6-18.2,30.7-28.8,18.8-31.9
		c-17.9-4.5-32.8,12.5-26.3,25.2c0,0-0.5-0.1-0.5-0.1c-7.6-1.3-15.7,0.2-22.7,4.5c0.7,1.9-70,40-70.5,41.9
		c-18.5,10.7-41.1,9.1-57.2-3.5c-11.7,13.1-60.8-8.5-78.4-6.8l-0.5,0c-11.3,1.1-44-18.9-55-21.1l-0.4-0.1c-14.7-3-56-37.6-64.1-50.2
		l-50.3-60.8l-0.2-0.1c-7.8-2.7-31.5-24.5-37.6-19.2c-2.3-0.2-4.5-0.2-6.7,0c-12.3-9.6-56.3,18.1-72.5,24.2
		c-31.9,11.9-62,37.7-87.2,59.2c-9.9,2.9-45.4,30.3-56,29.1L22.8,225"/>
	<path fill="none" stroke="#9DA5D2" stroke-width="0.3904" stroke-miterlimit="10" d="M72.8,183.8l1.8,2.1
		c-5.6-2.3,21.9,3.6,20.2-4.1c20.9-6.5,52.9-22.3,86.5-34.4c1.8-0.7,15-3.5,17.4-4.3c14-4.6,99-13.3,113.4-10.3c3,0.6,6,1.2,9,0.8
		c7.4-1,27.7,6.7,34.6,9.6l112.1,53.3c1.9,0.8,12.2,6,14,7l33,17.2c4.3,3.1,32.1,16.9,36.8,19c19.3,8.6,40.1,13.2,61.1,12.4l0.4,0
		c3.7-2.9,72.8-7.8,73.5-11.8c17.6-3.3,34.1-11.2,47.8-22.8c0,0,0.2-0.2,0.2-0.2c32.3-18.6,31.5-29.3,19.5-32.3
		c-18.2-4.5-33.4,12.9-26.6,26c0,0-0.5-0.1-0.5-0.1c-7.4-1.3-15.4,0.3-22.3,4.5c0.7,1.9-68.7,39.5-69.2,41.4
		c-18.2,10.5-40.4,9-56.3-3.2c-12,13.3-60.9-7.5-78.9-5.8l-0.5,0c-11.5,1.1-44.1-18.5-55.4-20.8l-0.4-0.1
		c-15.1-3-56.2-37.4-64.4-50.4l-50.3-61.2l-0.2-0.1c-7.7-2.6-31.6-25.1-37.6-19.9c-2.3-0.2-4.5-0.2-6.7-0.1
		c-12.6-9.8-56.5,17.3-73.1,23.4c-32.1,11.9-62.4,37.6-87.6,59.5c-9.7,2.8-45.6,30.9-56,29.7l-45.9,19.4"/>
	<path fill="none" stroke="#9BA4D1" stroke-width="0.3904" stroke-miterlimit="10" d="M72.6,187.1l1.7,2.1
		c-5.7-2.4,21.1,3.2,19.4-4.6c20.4-7,51.9-23.5,85.3-35.5c1.9-0.7,14.9-3.5,17.4-4.3c14.3-4.7,98.4-13.2,113.1-10.1
		c2.9,0.6,6,1.2,9,0.8c7.3-1,27.7,6.8,34.5,9.7l111.8,53.1c1.9,0.9,12.2,5.9,14,7l32.9,17.1c4.4,3.1,31.9,16.8,36.7,19
		c19.2,8.5,40,13.1,61,12.4l0.4,0c3.6-2.9,74.2-7.7,74.9-11.6c18-3.3,34.8-11.2,48.9-22.9c0,0,0.2-0.2,0.2-0.2
		c33.1-18.9,32.3-29.7,20.1-32.7c-18.6-4.6-33.9,13.3-26.9,26.7c0,0-0.5-0.1-0.5-0.1c-7.3-1.3-15.1,0.3-21.8,4.5
		c0.7,2-67.5,38.9-68,40.9c-17.9,10.4-39.8,9-55.3-3c-12.2,13.6-60.9-6.5-79.3-4.7l-0.5,0c-11.8,1.1-44.2-18.2-55.8-20.5l-0.4-0.1
		c-15.4-3.1-56.3-37.2-64.8-50.5L330,117.9l-0.2-0.1c-7.6-2.6-31.7-25.6-37.5-20.5c-2.3-0.3-4.5-0.3-6.7-0.2
		c-12.9-10-56.7,16.4-73.7,22.6c-32.2,11.8-62.8,37.5-88,59.7c-9.5,2.8-45.8,31.4-56,30.2l-45.9,20"/>
	<path fill="none" stroke="#99A2D0" stroke-width="0.3904" stroke-miterlimit="10" d="M72.3,190.4l1.5,2c-5.8-2.4,20.4,2.8,18.6-5.2
		c19.9-7.6,51-24.6,84.1-36.7c1.9-0.7,14.7-3.5,17.3-4.4c14.6-4.9,97.8-13,112.8-9.9c2.9,0.6,6,1.3,9,0.8c7.1-1,27.7,6.9,34.4,9.7
		l111.6,53c1.9,0.9,12.1,5.9,14,7l32.8,17.1c4.5,3.2,31.6,16.8,36.6,19c19.1,8.5,39.9,13.1,60.8,12.4l0.4,0
		c3.5-2.8,75.6-7.6,76.2-11.4c18.4-3.2,35.6-11.2,50-23c0,0,0.2-0.2,0.2-0.2c33.8-19.2,33.1-30.2,20.7-33.2
		c-18.9-4.6-34.4,13.7-27.2,27.5c0,0-0.5-0.1-0.5-0.1c-7.2-1.2-14.8,0.3-21.4,4.5c0.7,2-66.2,38.4-66.7,40.4
		c-17.5,10.3-39.1,8.9-54.4-2.8c-12.5,13.9-61-5.5-79.8-3.7l-0.5,0c-12,1.2-44.4-17.8-56.2-20.2l-0.4-0.1
		c-15.7-3.2-56.4-37-65.1-50.6l-50.4-61.9l-0.2-0.1c-7.4-2.5-31.7-26.1-37.5-21.1c-2.3-0.3-4.5-0.4-6.8-0.3
		c-13.2-10.2-56.9,15.6-74.3,21.8c-32.4,11.7-63.3,37.5-88.3,59.9c-9.4,2.7-46.1,31.9-56,30.8L21.6,232"/>
	<path fill="none" stroke="#97A0D0" stroke-width="0.3904" stroke-miterlimit="10" d="M72,193.7l1.3,2c-6-2.5,19.6,2.4,17.8-5.8
		c19.3-8.1,50.1-25.8,83-37.8c1.9-0.7,14.6-3.5,17.3-4.4c14.9-5,97.1-12.9,112.5-9.6c2.9,0.6,6,1.3,8.9,0.9c7-1,27.7,7,34.3,9.8
		l111.3,52.8c2,0.9,12,5.9,13.9,7l32.7,17.1c4.6,3.3,31.4,16.7,36.5,18.9c19.1,8.5,39.7,13,60.7,12.4l0.4,0
		c3.5-2.8,77-7.5,77.6-11.3c18.8-3.2,36.4-11.2,51.1-23.2c0,0,0.2-0.2,0.2-0.2c34.6-19.5,33.9-30.6,21.3-33.6
		c-19.2-4.6-34.9,14.1-27.4,28.2c0,0-0.5-0.1-0.5-0.1c-7-1.2-14.5,0.4-21,4.4c0.8,2-64.9,37.9-65.5,39.9
		c-17.2,10.1-38.4,8.9-53.5-2.6c-12.8,14.2-61-4.5-80.3-2.7l-0.5,0c-12.3,1.2-44.5-17.5-56.6-19.9l-0.4-0.1
		c-16.1-3.3-56.5-36.9-65.4-50.7l-50.5-62.3l-0.1-0.1c-7.3-2.5-31.8-26.6-37.4-21.7c-2.3-0.3-4.6-0.5-6.8-0.5
		c-13.4-10.4-57.2,14.7-74.9,21.1c-32.6,11.7-63.7,37.4-88.7,60.2c-9.2,2.7-46.3,32.5-56.1,31.4l-45.9,21.1"/>
	<path fill="none" stroke="#969FCF" stroke-width="0.3904" stroke-miterlimit="10" d="M71.8,197l1.1,2c-6.1-2.5,18.9,2,17-6.4
		c18.8-8.6,49.2-26.9,81.8-38.9c2-0.7,14.5-3.5,17.2-4.4c15.2-5.1,96.5-12.8,112.2-9.4c2.9,0.6,5.9,1.4,8.9,0.9
		c6.9-1,27.8,7.2,34.2,9.9l111,52.6c2,0.9,12,5.8,13.9,6.9l32.5,17.1c4.7,3.3,31.2,16.6,36.4,18.9c19,8.4,39.6,13,60.5,12.4l0.4,0
		c3.4-2.7,78.4-7.4,79-11.1c19.1-3.1,37.1-11.2,52.2-23.3c0,0,0.2-0.2,0.2-0.2c35.3-19.8,34.7-31.1,21.9-34.1
		c-19.5-4.6-35.4,14.5-27.7,28.9c0,0-0.5-0.1-0.4-0.1c-6.9-1.1-14.2,0.4-20.5,4.4c0.8,2.1-63.7,37.3-64.2,39.4
		c-16.9,10-37.7,8.8-52.6-2.4c-13,14.5-61.1-3.5-80.7-1.6l-0.5,0c-12.5,1.2-44.7-17.1-57-19.6l-0.5-0.1
		c-16.4-3.3-56.7-36.7-65.7-50.8l-50.5-62.7l-0.1-0.1c-7.1-2.4-31.8-27.2-37.4-22.3c-2.3-0.4-4.6-0.6-6.8-0.6
		c-13.7-10.6-57.4,13.9-75.5,20.3c-32.8,11.6-64.1,37.3-89,60.4c-9,2.6-46.5,33-56.1,31.9l-45.9,21.6"/>
	<path fill="none" stroke="#949DCE" stroke-width="0.3904" stroke-miterlimit="10" d="M71.5,200.3l1,1.9c-6.2-2.6,18.1,1.6,16.2-7
		c18.3-9.2,48.3-28.1,80.6-40c2-0.7,14.4-3.5,17.2-4.4c15.6-5.2,95.9-12.7,111.8-9.2c2.9,0.6,5.9,1.4,8.9,1c6.7-1,27.8,7.3,34.1,9.9
		L452,205c2.1,0.9,11.9,5.8,13.9,6.9l32.4,17c4.8,3.4,31,16.5,36.3,18.9c19,8.4,39.5,13,60.3,12.4l0.4,0c3.4-2.6,79.8-7.3,80.4-10.9
		c19.5-3.1,37.9-11.2,53.3-23.5c0,0,0.2-0.2,0.2-0.2c36.1-20.1,35.5-31.5,22.5-34.5c-19.9-4.6-35.9,14.9-28,29.7
		c0,0-0.4-0.1-0.4-0.1c-6.7-1.1-13.9,0.5-20.1,4.4c0.8,2.1-62.4,36.8-63,38.9c-16.6,9.9-37,8.8-51.7-2.2
		c-13.3,14.8-61.1-2.5-81.2-0.6l-0.6,0.1c-12.8,1.2-44.8-16.8-57.4-19.3l-0.5-0.1c-16.7-3.4-56.8-36.5-66-50.9l-50.6-63.1l-0.1-0.1
		c-7-2.4-31.9-27.7-37.3-22.9c-2.3-0.4-4.6-0.7-6.9-0.7c-14-10.9-57.6,13-76.2,19.5c-33,11.5-64.5,37.3-89.4,60.7
		c-8.8,2.6-46.7,33.6-56.1,32.5l-46,22.1"/>
	<path fill="none" stroke="#929CCD" stroke-width="0.3904" stroke-miterlimit="10" d="M71.2,203.6l0.8,1.9
		c-6.3-2.6,17.4,1.2,15.4-7.5c17.8-9.7,47.4-29.2,79.5-41.1c2.1-0.8,14.3-3.5,17.1-4.4c15.9-5.3,95.3-12.6,111.5-9
		c2.9,0.6,5.9,1.5,8.8,1c6.6-1,27.8,7.4,34,10l110.5,52.3c2.1,1,11.8,5.8,13.8,6.9l32.3,17c4.9,3.5,30.8,16.4,36.2,18.8
		c18.9,8.4,39.4,12.9,60.2,12.4l0.4,0c3.3-2.6,81.2-7.2,81.7-10.8c19.9-3,38.6-11.2,54.4-23.6c0,0,0.2-0.2,0.2-0.2
		c36.8-20.4,36.3-32,23.2-35c-20.2-4.6-36.4,15.3-28.3,30.4c0,0-0.4-0.1-0.4-0.1c-6.6-1-13.6,0.5-19.7,4.4
		c0.8,2.2-61.2,36.2-61.7,38.4c-16.3,9.7-36.4,8.7-50.7-1.9c-13.6,15.1-61.2-1.5-81.6,0.5l-0.6,0.1c-13,1.3-44.9-16.4-57.8-19
		l-0.5-0.1c-17.1-3.5-56.9-36.3-66.3-51L333,130.5l-0.1-0.1c-6.9-2.3-31.9-28.2-37.3-23.6c-2.3-0.5-4.6-0.8-6.9-0.9
		c-14.3-11.1-57.8,12.2-76.8,18.7c-33.1,11.5-64.9,37.2-89.7,60.9c-8.7,2.5-46.9,34.1-56.2,33l-46,22.7"/>
	<path fill="none" stroke="#919ACC" stroke-width="0.3904" stroke-miterlimit="10" d="M71,206.9l0.6,1.8c-6.4-2.7,16.6,0.8,14.6-8.1
		c17.3-10.2,46.5-30.4,78.3-42.2c2.1-0.8,14.2-3.5,17.1-4.5c16.2-5.4,94.7-12.4,111.2-8.7c2.9,0.6,5.9,1.5,8.8,1.1
		c6.5-1,27.8,7.5,33.9,10l110.2,52.1c2.2,1,11.8,5.7,13.8,6.9l32.2,17c5,3.5,30.6,16.4,36.1,18.8c18.9,8.4,39.3,12.9,60,12.4l0.4,0
		c3.2-2.5,82.6-7.1,83.1-10.6c20.3-3,39.4-11.2,55.5-23.8c0,0,0.3-0.2,0.2-0.2c37.6-20.7,37.1-32.4,23.8-35.4
		c-20.5-4.6-37,15.7-28.6,31.1c0,0-0.4-0.1-0.4-0.1c-6.4-1-13.3,0.5-19.2,4.4c0.8,2.2-59.9,35.7-60.5,37.9
		c-16,9.6-35.7,8.7-49.8-1.7c-13.8,15.4-61.3-0.5-82.1,1.5l-0.6,0.1c-13.3,1.3-45.1-16.1-58.2-18.7l-0.5-0.1
		c-17.4-3.5-57.1-36.1-66.6-51.1L333.6,133l-0.1,0c-6.7-2.3-32-28.7-37.2-24.2c-2.3-0.5-4.6-0.8-6.9-1
		c-14.6-11.3-58.1,11.3-77.4,17.9c-33.3,11.4-65.4,37.1-90.1,61.1c-8.5,2.5-47.1,34.6-56.2,33.6l-46,23.2"/>
	<path fill="none" stroke="#8F99CC" stroke-width="0.3904" stroke-miterlimit="10" d="M70.7,210.2l0.4,1.8
		c-6.6-2.7,15.8,0.4,13.8-8.7c16.7-10.8,45.6-31.5,77.1-43.3c2.1-0.8,14.1-3.5,17-4.5c16.5-5.5,94.1-12.3,110.9-8.5
		c2.9,0.7,5.9,1.5,8.8,1.1c6.3-1,27.8,7.6,33.8,10.1l109.9,51.9c2.2,1,11.7,5.7,13.8,6.9l32.1,16.9c5.1,3.6,30.3,16.3,36,18.8
		c18.8,8.3,39.2,12.9,59.8,12.4l0.4,0c3.2-2.5,83.9-7,84.5-10.4c20.6-2.9,40.1-11.2,56.6-23.9c0,0,0.3-0.2,0.3-0.2
		c38.4-21,37.9-32.9,24.4-35.9c-20.8-4.7-37.5,16.1-28.9,31.9c0,0-0.4-0.1-0.4-0.1c-6.3-0.9-13,0.6-18.8,4.4
		c0.8,2.3-58.6,35.1-59.3,37.4c-15.7,9.5-35,8.6-48.9-1.5c-14.1,15.7-61.3,0.5-82.5,2.6l-0.6,0.1c-13.6,1.3-45.2-15.7-58.6-18.4
		l-0.5-0.1c-17.8-3.6-57.2-35.9-67-51.2l-50.7-64.3l-0.1,0c-6.6-2.2-32.1-29.3-37.2-24.8c-2.3-0.6-4.6-0.9-6.9-1.1
		c-14.8-11.5-58.3,10.5-78,17.2c-33.5,11.3-65.8,37.1-90.4,61.4c-8.3,2.4-47.3,35.2-56.2,34.1l-46,23.8"/>
	<path fill="none" stroke="#8D97CB" stroke-width="0.3904" stroke-miterlimit="10" d="M70.4,213.5l0.3,1.8c-6.7-2.8,15.1-0.1,13-9.3
		c16.2-11.3,44.6-32.7,75.9-44.4c2.2-0.8,14-3.5,16.9-4.5c16.8-5.6,93.4-12.2,110.6-8.3c2.9,0.7,5.8,1.6,8.8,1.1
		c6.2-1,27.8,7.7,33.7,10.1l109.6,51.7c2.2,1,11.6,5.7,13.7,6.9l32,16.9c5.1,3.7,30.1,16.2,35.9,18.7c18.8,8.3,39.1,12.8,59.7,12.4
		l0.4,0c3.1-2.4,85.3-6.9,85.9-10.2c21-2.9,40.9-11.2,57.7-24c0,0,0.3-0.2,0.3-0.2c39.1-21.4,38.7-33.3,25-36.3
		c-21.2-4.7-38,16.5-29.2,32.6c0,0-0.4-0.1-0.4-0.1c-6.1-0.9-12.7,0.6-18.4,4.4c0.9,2.3-57.4,34.6-58,36.9
		c-15.4,9.4-34.3,8.6-48-1.3c-14.3,16-61.4,1.5-83,3.6l-0.6,0.1c-13.8,1.3-45.3-15.4-58.9-18.1l-0.5-0.1
		c-18.1-3.7-57.3-35.8-67.3-51.3L334.8,138l-0.1,0c-6.5-2.2-32.1-29.8-37.1-25.4c-2.3-0.6-4.7-1-7-1.2
		c-15.1-11.7-58.5,9.7-78.6,16.4c-33.7,11.3-66.2,37-90.8,61.6C113,191.6,73.6,225,64.9,224l-46.1,24.3"/>
	<path fill="none" stroke="#8C96CA" stroke-width="0.3904" stroke-miterlimit="10" d="M70.2,216.8l0.1,1.7
		c-6.8-2.8,14.3-0.5,12.3-9.9c15.7-11.8,43.7-33.8,74.8-45.5c2.2-0.8,13.9-3.5,16.9-4.5c17.1-5.7,92.8-12.1,110.3-8
		c2.8,0.7,5.8,1.6,8.7,1.2c6.1-1,27.9,7.8,33.6,10.2l109.3,51.6c2.3,1,11.5,5.6,13.7,6.9l31.9,16.9c5.2,3.7,29.9,16.1,35.8,18.7
		c18.7,8.3,39,12.8,59.5,12.4l0.4,0c3-2.4,86.7-6.8,87.2-10.1c21.4-2.8,41.6-11.2,58.8-24.2c0,0,0.3-0.2,0.3-0.2
		c39.9-21.7,39.5-33.8,25.6-36.8c-21.5-4.7-38.5,16.9-29.4,33.3c0,0-0.4-0.1-0.4-0.1c-6-0.8-12.4,0.7-18,4.4
		c0.9,2.3-56.1,34-56.8,36.4c-15.1,9.2-33.7,8.5-47.1-1.1c-14.6,16.3-61.4,2.6-83.5,4.7l-0.6,0.1c-14.1,1.4-45.5-15-59.3-17.8
		l-0.5-0.1c-18.4-3.7-57.5-35.6-67.6-51.4l-50.8-65l-0.1,0c-6.3-2.1-32.2-30.3-37.1-26c-2.3-0.6-4.7-1.1-7-1.4
		c-15.4-11.9-58.7,8.8-79.2,15.6c-33.9,11.2-66.6,36.9-91.2,61.9c-8,2.3-47.7,36.2-56.3,35.3l-46.1,24.9"/>
	<path fill="none" stroke="#8A95C9" stroke-width="0.3904" stroke-miterlimit="10" d="M69.9,220.1l-0.1,1.7
		c-6.9-2.9,13.6-0.9,11.5-10.4c15.2-12.4,42.8-35,73.6-46.6c2.3-0.8,13.8-3.6,16.8-4.6c17.4-5.8,92.2-12,110-7.8
		c2.8,0.7,5.8,1.7,8.7,1.2c5.9-1,27.9,7.9,33.5,10.3l109.1,51.4c2.3,1,11.5,5.6,13.7,6.8l31.8,16.8c5.3,3.8,29.7,16.1,35.6,18.7
		c18.7,8.2,38.9,12.8,59.3,12.4l0.4,0c3-2.3,88.1-6.7,88.6-9.9c21.7-2.8,42.4-11.2,59.9-24.3c0,0,0.3-0.2,0.3-0.2
		c40.6-22,40.3-34.2,26.2-37.2c-21.8-4.7-39,17.3-29.7,34.1c0,0-0.4-0.1-0.4-0.1c-5.8-0.8-12.1,0.7-17.5,4.3
		c0.9,2.4-54.9,33.5-55.5,35.9c-14.8,9.1-33,8.5-46.2-0.9c-14.9,16.6-61.5,3.6-83.9,5.7l-0.6,0.1c-14.3,1.4-45.6-14.7-59.7-17.5
		l-0.5-0.1c-18.8-3.8-57.6-35.4-67.9-51.5L336,143l-0.1,0c-6.2-2.1-32.2-30.8-37-26.6c-2.3-0.7-4.7-1.2-7-1.5
		c-15.7-12.2-58.9,8-79.8,14.8c-34.1,11.1-67,36.9-91.5,62.1c-7.8,2.3-48,36.8-56.3,35.8L18,253"/>
	<path fill="none" stroke="#8893C8" stroke-width="0.3904" stroke-miterlimit="10" d="M69.6,223.4l-0.2,1.7
		c-7.1-2.9,12.8-1.3,10.7-11c14.7-12.9,41.9-36.1,72.4-47.7c2.3-0.9,13.7-3.6,16.8-4.6c17.7-5.9,91.6-11.9,109.7-7.6
		c2.8,0.7,5.8,1.7,8.7,1.3c5.8-1,27.9,8,33.3,10.3L429.8,217c2.4,1.1,11.4,5.5,13.6,6.8l31.7,16.8c5.4,3.9,29.5,16,35.5,18.6
		c18.6,8.2,38.8,12.7,59.2,12.4l0.4,0c2.9-2.3,89.5-6.6,90-9.7c22.1-2.7,43.1-11.2,61-24.5c0,0,0.3-0.2,0.3-0.2
		c41.4-22.3,41.1-34.7,26.9-37.7c-22.2-4.7-39.5,17.7-30,34.8c0,0-0.4-0.1-0.4,0c-5.7-0.8-11.8,0.7-17.1,4.3
		c0.9,2.4-53.6,32.9-54.3,35.4c-14.5,9-32.3,8.4-45.2-0.6c-15.1,16.9-61.6,4.6-84.4,6.8l-0.6,0.1c-14.6,1.4-45.8-14.3-60.1-17.2
		l-0.5-0.1c-19.1-3.9-57.7-35.2-68.2-51.6l-50.9-65.8l-0.1,0c-6-2-32.3-31.3-37-27.3c-2.3-0.7-4.7-1.3-7.1-1.6
		c-16-12.4-59.1,7.2-80.5,14c-34.3,11.1-67.4,36.8-91.9,62.3c-7.6,2.2-48.2,37.3-56.3,36.4l-46.1,26"/>
	<path fill="none" stroke="#8792C8" stroke-width="0.3904" stroke-miterlimit="10" d="M69.4,226.7l-0.4,1.6
		c-7.2-3,12.1-1.7,9.9-11.6c14.2-13.4,41-37.3,71.3-48.8c2.3-0.9,13.5-3.6,16.7-4.6c18-6,91-11.8,109.4-7.4c2.8,0.7,5.7,1.8,8.6,1.3
		c5.7-0.9,27.9,8.1,33.2,10.4l108.5,51c2.4,1.1,11.3,5.5,13.6,6.8l31.6,16.8c5.5,4,29.3,15.9,35.4,18.6c18.6,8.2,38.7,12.7,59,12.4
		l0.4,0c2.8-2.2,90.9-6.5,91.4-9.6c22.5-2.7,43.9-11.2,62.1-24.6c0,0,0.3-0.2,0.3-0.2c42.1-22.6,41.9-35.1,27.5-38.1
		c-22.5-4.7-40.1,18.1-30.3,35.5c0,0-0.4-0.1-0.4,0c-5.5-0.7-11.5,0.8-16.7,4.3c0.9,2.5-52.3,32.4-53,34.9
		c-14.1,8.8-31.6,8.4-44.3-0.4c-15.4,17.2-61.6,5.6-84.8,7.8l-0.6,0.1c-14.8,1.4-45.9-14-60.5-16.9l-0.5-0.1
		c-19.4-3.9-57.8-35-68.5-51.7l-51-66.2l-0.1,0c-5.9-2-32.4-31.9-36.9-27.9c-2.4-0.8-4.7-1.4-7.1-1.8c-16.2-12.6-59.4,6.3-81.1,13.2
		c-34.5,11-67.9,36.7-92.2,62.6c-7.5,2.2-48.4,37.8-56.3,36.9l-46.2,26.5"/>
	<path fill="none" stroke="#8590C7" stroke-width="0.3904" stroke-miterlimit="10" d="M69.1,230l-0.6,1.6c-7.3-3,11.3-2.1,9.1-12.2
		c13.6-14,40.1-38.4,70.1-49.9c2.4-0.9,13.4-3.6,16.7-4.6c18.4-6.1,90.4-11.7,109.1-7.1c2.8,0.7,5.7,1.8,8.6,1.3
		c5.5-0.9,27.9,8.3,33.1,10.4l108.2,50.9c2.4,1.1,11.3,5.5,13.6,6.8l31.5,16.8c5.6,4,29,15.8,35.3,18.6
		c18.5,8.2,38.5,12.7,58.8,12.4l0.4,0c2.8-2.2,92.3-6.4,92.8-9.4c22.9-2.6,44.6-11.2,63.2-24.8c0,0,0.3-0.2,0.3-0.2
		c42.9-22.9,42.7-35.5,28.1-38.6c-22.8-4.7-40.6,18.5-30.6,36.3c0,0-0.4-0.1-0.4,0c-5.4-0.7-11.2,0.8-16.2,4.3
		c0.9,2.5-51.1,31.9-51.8,34.4c-13.8,8.7-30.9,8.3-43.4-0.2c-15.7,17.5-61.7,6.6-85.3,8.9l-0.7,0.1c-15.1,1.5-46-13.6-60.9-16.6
		l-0.5-0.1c-19.8-4-58-34.8-68.8-51.8l-51-66.6l-0.1,0c-5.8-2-32.4-32.4-36.9-28.5c-2.4-0.8-4.7-1.4-7.1-1.9
		c-16.5-12.8-59.6,5.5-81.7,12.5c-34.7,10.9-68.3,36.7-92.6,62.8c-7.3,2.1-48.6,38.4-56.4,37.5l-46.2,27.1"/>
	<path fill="none" stroke="#848FC6" stroke-width="0.3904" stroke-miterlimit="10" d="M68.8,233.3l-0.8,1.5
		c-7.4-3.1,10.6-2.5,8.3-12.8c13.1-14.5,39.2-39.6,68.9-51c2.4-0.9,13.3-3.6,16.6-4.7c18.7-6.2,89.8-11.6,108.8-6.9
		c2.8,0.7,5.7,1.9,8.6,1.4c5.4-0.9,27.9,8.4,33,10.5l108,50.7c2.5,1.1,11.2,5.4,13.6,6.8l31.4,16.7c5.7,4.1,28.8,15.7,35.2,18.5
		c18.5,8.1,38.4,12.6,58.7,12.4l0.4,0c2.7-2.1,93.7-6.3,94.1-9.2c23.2-2.6,45.4-11.2,64.3-24.9c0,0,0.3-0.2,0.3-0.2
		c43.7-23.2,43.5-36,28.7-39c-23.1-4.7-41.1,18.9-30.9,37c0,0-0.4-0.1-0.3,0c-5.3-0.6-10.9,0.9-15.8,4.3c1,2.6-49.8,31.3-50.5,33.9
		c-13.5,8.6-30.3,8.3-42.5,0c-15.9,17.8-61.7,7.6-85.8,9.9l-0.7,0.1c-15.3,1.5-46.2-13.3-61.3-16.3l-0.6-0.1
		c-20.1-4.1-58.1-34.6-69.2-51.9l-51.1-67l-0.1,0c-5.6-1.9-32.5-32.9-36.8-29.1c-2.4-0.9-4.8-1.5-7.1-2c-16.8-13-59.8,4.7-82.3,11.7
		c-34.9,10.9-68.7,36.6-92.9,63.1c-7.1,2.1-48.8,38.9-56.4,38l-46.2,27.6"/>
	<path fill="none" stroke="#828EC5" stroke-width="0.3904" stroke-miterlimit="10" d="M68.6,236.6l-0.9,1.5
		c-7.6-3.1,9.8-2.9,7.5-13.3c12.6-15,38.2-40.7,67.8-52.1c2.4-0.9,13.2-3.6,16.6-4.7c19-6.3,89.2-11.5,108.5-6.7
		c2.8,0.7,5.7,1.9,8.5,1.4c5.3-0.9,28,8.5,32.9,10.6l107.7,50.5c2.5,1.1,11.1,5.4,13.5,6.8l31.3,16.7c5.8,4.2,28.6,15.7,35.1,18.5
		c18.4,8.1,38.3,12.6,58.5,12.4l0.4,0c2.6-2.1,95-6.2,95.5-9.1c23.6-2.5,46.1-11.2,65.4-25c0,0,0.3-0.2,0.3-0.2
		c44.4-23.5,44.3-36.4,29.3-39.5c-23.5-4.8-41.6,19.3-31.2,37.8c0,0-0.3-0.1-0.3,0c-5.1-0.6-10.6,0.9-15.4,4.3
		c1,2.6-48.6,30.8-49.3,33.4c-13.2,8.4-29.6,8.2-41.6,0.2c-16.2,18.1-61.8,8.6-86.2,11l-0.7,0.1c-15.6,1.5-46.3-12.9-61.7-16
		l-0.6-0.1c-20.4-4.1-58.2-34.5-69.5-52L339,155.6l-0.1,0c-5.5-1.9-32.5-33.4-36.8-29.7c-2.4-0.9-4.8-1.6-7.2-2.1
		c-17.1-13.2-60,3.9-82.9,10.9c-35.1,10.8-69.1,36.5-93.3,63.3c-6.9,2-49,39.4-56.4,38.6l-46.2,28.1"/>
	<path fill="none" stroke="#808CC5" stroke-width="0.3904" stroke-miterlimit="10" d="M68.3,239.9l-1.1,1.5
		c-7.7-3.2,9.1-3.3,6.7-13.9c12.1-15.6,37.3-41.9,66.6-53.2c2.5-1,13.1-3.6,16.5-4.7c19.3-6.4,88.6-11.4,108.2-6.4
		c2.8,0.7,5.7,2,8.5,1.5c5.1-0.9,28,8.6,32.8,10.6l107.4,50.3c2.6,1.2,11,5.4,13.5,6.8l31.2,16.7c5.9,4.2,28.4,15.6,35,18.5
		c18.4,8.1,38.2,12.5,58.3,12.4l0.4,0c2.6-2,96.4-6.1,96.9-8.9c24-2.5,46.9-11.2,66.5-25.2c0,0,0.3-0.2,0.3-0.2
		c45.2-23.8,45.1-36.9,29.9-39.9c-23.8-4.8-42.1,19.7-31.4,38.5c0,0-0.3-0.1-0.3,0c-5-0.5-10.3,0.9-14.9,4.3
		c1,2.6-47.3,30.2-48,32.9c-12.9,8.3-28.9,8.2-40.6,0.4c-16.5,18.4-61.8,9.6-86.7,12l-0.7,0.1c-15.9,1.5-46.5-12.6-62.1-15.7
		l-0.6-0.1c-20.8-4.2-58.4-34.3-69.8-52.1l-51.2-67.8l-0.1,0c-5.4-1.8-32.6-34-36.7-30.3c-2.4-0.9-4.8-1.7-7.2-2.3
		c-17.4-13.5-60.2,3-83.5,10.1c-35.3,10.7-69.5,36.5-93.6,63.5c-6.8,2-49.2,40-56.4,39.2l-46.3,28.7"/>
	<path fill="none" stroke="#7F8BC4" stroke-width="0.3904" stroke-miterlimit="10" d="M68,243.2l-1.3,1.4c-7.8-3.2,8.3-3.7,5.9-14.5
		c11.6-16.1,36.4-43,65.4-54.3c2.5-1,13-3.6,16.5-4.7c19.6-6.5,87.9-11.3,107.9-6.2c2.8,0.7,5.6,2,8.5,1.5c5-0.9,28,8.7,32.7,10.7
		l107.1,50.2c2.6,1.2,11,5.3,13.5,6.8l31.1,16.6c6,4.3,28.2,15.5,34.9,18.4c18.3,8,38.1,12.5,58.2,12.4l0.4,0c2.5-2,97.8-6,98.3-8.7
		c24.3-2.4,47.6-11.2,67.6-25.3c0,0,0.3-0.2,0.3-0.2c45.9-24.2,45.9-37.3,30.6-40.4c-24.1-4.8-42.6,20.1-31.7,39.2c0,0-0.3,0-0.3,0
		c-4.8-0.5-10,1-14.5,4.3c1,2.7-46.1,29.7-46.8,32.4c-12.6,8.2-28.2,8.1-39.7,0.7c-16.7,18.7-61.9,10.6-87.1,13.1l-0.7,0.1
		c-16.1,1.6-46.6-12.2-62.5-15.4l-0.6-0.1c-21.1-4.3-58.5-34.1-70.1-52.2l-51.2-68.1l-0.1,0c-5.2-1.8-32.6-34.5-36.7-31
		c-2.4-1-4.8-1.8-7.2-2.4c-17.6-13.7-60.4,2.2-84.1,9.3c-35.5,10.7-70,36.4-94,63.8c-6.6,1.9-49.4,40.5-56.5,39.7l-46.3,29.2"/>
	<path fill="none" stroke="#7D8AC3" stroke-width="0.3904" stroke-miterlimit="10" d="M67.8,246.5l-1.4,1.4
		c-7.9-3.3,7.6-4.2,5.1-15.1c11.1-16.6,35.5-44.2,64.3-55.4c2.6-1,12.9-3.6,16.4-4.8c19.9-6.6,87.3-11.2,107.5-6
		c2.8,0.7,5.6,2.1,8.4,1.5c4.9-0.9,28,8.8,32.6,10.7l106.8,50c2.7,1.2,10.9,5.3,13.4,6.7l31,16.6c6.1,4.4,28,15.4,34.8,18.4
		c18.3,8,38,12.5,58,12.4l0.4,0c2.4-1.9,99.2-5.9,99.6-8.5c24.7-2.4,48.4-11.2,68.7-25.5c0,0,0.3-0.2,0.3-0.2
		c46.7-24.5,46.7-37.8,31.2-40.8c-24.4-4.8-43.1,20.5-32,40c0,0-0.3,0-0.3,0c-4.7-0.4-9.7,1-14.1,4.2c1,2.7-44.8,29.1-45.5,31.9
		c-12.3,8-27.6,8.1-38.8,0.9c-17,19-62,11.6-87.6,14.1l-0.7,0.1c-16.4,1.6-46.7-11.9-62.9-15.1l-0.6-0.1
		c-21.4-4.3-58.6-33.9-70.4-52.3l-51.3-68.5l-0.1,0c-5.1-1.7-32.7-35-36.6-31.6c-2.4-1-4.8-1.9-7.3-2.5
		c-17.9-13.9-60.7,1.4-84.8,8.6c-35.7,10.6-70.4,36.3-94.4,64c-6.4,1.9-49.7,41.1-56.5,40.3l-46.3,29.8"/>
	<path fill="none" stroke="#7C88C3" stroke-width="0.3904" stroke-miterlimit="10" d="M67.5,249.8l-1.6,1.4
		c-8.1-3.3,6.8-4.6,4.3-15.7c10.5-17.2,34.6-45.3,63.1-56.5c2.6-1,12.8-3.6,16.4-4.8c20.2-6.7,86.7-11.1,107.2-5.7
		c2.8,0.7,5.6,2.1,8.4,1.6c4.7-0.9,28,8.9,32.5,10.8l106.6,49.8c2.7,1.2,10.8,5.3,13.4,6.7l30.9,16.6c6.2,4.4,27.8,15.4,34.7,18.4
		c18.2,8,37.9,12.4,57.8,12.4l0.4,0c2.4-1.9,100.6-5.8,101-8.4c25.1-2.3,49.1-11.2,69.8-25.6c0,0,0.3-0.2,0.3-0.2
		c47.4-24.8,47.5-38.2,31.8-41.3c-24.8-4.8-43.7,20.9-32.3,40.7c0,0-0.3,0-0.3,0c-4.5-0.4-9.4,1.1-13.6,4.2
		c1,2.8-43.5,28.6-44.3,31.4c-12,7.9-26.9,8-37.9,1.1c-17.3,19.3-62,12.6-88,15.2l-0.7,0.1c-16.6,1.6-46.9-11.5-63.3-14.8l-0.6-0.1
		c-21.8-4.4-58.8-33.7-70.7-52.4l-51.3-68.9l-0.1,0c-4.9-1.7-32.8-35.5-36.6-32.2c-2.4-1.1-4.8-2-7.3-2.7
		c-18.2-14.1-60.9,0.6-85.4,7.8c-35.9,10.5-70.8,36.3-94.7,64.3c-6.2,1.8-49.9,41.6-56.5,40.8l-46.3,30.3"/>
	<path fill="none" stroke="#7A87C2" stroke-width="0.3904" stroke-miterlimit="10" d="M67.2,253.1l-1.8,1.3c-8.2-3.4,6.1-5,3.6-16.2
		c10-17.7,33.7-46.5,61.9-57.6c2.6-1,12.7-3.6,16.3-4.8c20.5-6.8,86.1-11.1,106.9-5.5c2.7,0.7,5.6,2.2,8.4,1.6
		c4.6-0.9,28,9,32.4,10.8l106.3,49.6c2.7,1.2,10.8,5.2,13.4,6.7l30.8,16.6c6.3,4.5,27.5,15.3,34.6,18.4c18.2,8,37.8,12.4,57.7,12.4
		l0.4,0c2.3-1.8,102-5.7,102.4-8.2c25.5-2.3,49.9-11.2,70.9-25.7c0,0,0.3-0.2,0.3-0.2c48.2-25.1,48.3-38.7,32.4-41.7
		c-25.1-4.8-44.2,21.3-32.6,41.4c0,0-0.3,0-0.3,0c-4.4-0.4-9.1,1.1-13.2,4.2c1,2.8-42.3,28-43,30.9c-11.7,7.8-26.2,8-37,1.3
		c-17.5,19.6-62.1,13.7-88.5,16.2l-0.7,0.1c-16.9,1.6-47-11.2-63.6-14.5l-0.6-0.1c-22.1-4.5-58.9-33.5-71-52.5L342,168.1l-0.1,0
		c-4.8-1.6-32.8-36.1-36.5-32.8c-2.4-1.1-4.9-2-7.3-2.8c-18.5-14.3-61.1-0.2-86,7C176,150,140.8,175.7,117,204
		c-6.1,1.8-50.1,42.1-56.6,41.4l-46.3,30.9"/>
	<path fill="none" stroke="#7886C1" stroke-width="0.3904" stroke-miterlimit="10" d="M67,256.4l-2,1.3c-8.3-3.4,5.3-5.4,2.8-16.8
		c9.5-18.2,32.8-47.6,60.7-58.7c2.7-1.1,12.6-3.6,16.2-4.8c20.8-6.9,85.5-11,106.6-5.3c2.7,0.7,5.6,2.2,8.4,1.7
		c4.5-0.8,28.1,9.1,32.3,10.9l106,49.5c2.8,1.3,10.7,5.2,13.3,6.7l30.7,16.5c6.4,4.6,27.3,15.2,34.4,18.3
		c18.1,7.9,37.7,12.4,57.5,12.4l0.4,0c2.2-1.8,103.4-5.6,103.8-8c25.8-2.2,50.6-11.2,72-25.9c0,0,0.3-0.2,0.3-0.2
		c49-25.4,49.1-39.1,33-42.2c-25.4-4.8-44.7,21.7-32.9,42.2c0,0-0.3,0-0.3,0c-4.2-0.3-8.8,1.1-12.8,4.2c1.1,2.9-41,27.5-41.8,30.4
		c-11.4,7.7-25.5,7.9-36,1.5c-17.8,19.9-62.1,14.7-89,17.2l-0.7,0.1c-17.1,1.7-47.2-10.8-64-14.2l-0.6-0.1
		c-22.4-4.5-59-33.4-71.4-52.6l-51.4-69.7l-0.1,0c-4.7-1.6-32.9-36.6-36.5-33.4c-2.4-1.2-4.9-2.1-7.4-2.9
		c-18.8-14.6-61.3-1.1-86.6,6.2c-36.3,10.4-71.6,36.2-95.4,64.8c-5.9,1.7-50.3,42.7-56.6,41.9l-46.4,31.4"/>
	<path fill="none" stroke="#7784C0" stroke-width="0.3904" stroke-miterlimit="10" d="M66.7,259.7l-2.1,1.2c-8.4-3.5,4.5-5.8,2-17.4
		c9-18.8,31.8-48.8,59.6-59.8c2.7-1.1,12.5-3.6,16.2-4.9c21.2-7,84.9-10.9,106.3-5.1c2.7,0.7,5.5,2.2,8.3,1.7
		c4.3-0.8,28.1,9.3,32.2,11l105.7,49.3c2.8,1.3,10.6,5.2,13.3,6.7l30.5,16.5c6.5,4.6,27.1,15.1,34.3,18.3
		c18.1,7.9,37.6,12.3,57.3,12.4l0.4,0c2.2-1.7,104.8-5.5,105.1-7.9c26.2-2.2,51.4-11.2,73.1-26c0,0,0.3-0.2,0.3-0.2
		c49.7-25.7,49.9-39.6,33.6-42.6c-25.8-4.8-45.2,22.1-33.1,42.9c0,0-0.3,0-0.3,0c-4.1-0.3-8.5,1.2-12.4,4.2
		c1.1,2.9-39.8,27-40.5,29.9c-11.1,7.5-24.8,7.9-35.1,1.7c-18.1,20.2-62.2,15.7-89.4,18.3l-0.8,0.1c-17.4,1.7-47.3-10.5-64.4-13.9
		l-0.6-0.1c-22.8-4.6-59.1-33.2-71.7-52.7l-51.5-70.1l-0.1,0c-4.5-1.5-32.9-37.1-36.4-34c-2.4-1.2-5.1-1.8-7.4-3
		c-21.3-11.4-61.5-1.9-87.2,5.4c-36.5,10.4-72,36.1-95.8,65c-5.7,1.7-50.5,43.2-56.6,42.5l-46.4,32"/>
	<path fill="none" stroke="#7583C0" stroke-width="0.3904" stroke-miterlimit="10" d="M66.4,263l-2.3,1.2c-8.6-3.5,3.8-6.2,1.2-18
		c8.5-19.3,30.9-49.9,58.4-60.9c2.8-1.1,12.4-3.6,16.1-4.9c21.5-7.1,84.3-10.8,106-4.8c2.7,0.7,5.5,2.3,8.3,1.8
		c4.2-0.8,28.1,9.4,32.1,11l105.5,49.1c2.9,1.3,10.5,5.1,13.3,6.7l30.4,16.5c6.6,4.7,26.9,15.1,34.2,18.3
		c18,7.9,37.4,12.3,57.2,12.4l0.4,0c2.1-1.7,106.1-5.4,106.5-7.7c26.6-2.1,52.1-11.2,74.2-26.2c0,0,0.3-0.2,0.3-0.2
		c50.5-26,50.7-40,34.3-43.1c-26.1-4.9-45.7,22.5-33.4,43.6c0,0-0.3,0-0.3,0c-3.9-0.2-8.2,1.2-11.9,4.2c1.1,2.9-38.5,26.4-39.3,29.4
		c-10.8,7.4-24.2,7.8-34.2,2c-18.3,20.5-62.2,16.7-89.9,19.3l-0.8,0.1c-17.6,1.7-47.4-10.1-64.8-13.6l-0.6-0.1
		c-23.1-4.7-59.3-33-72-52.8l-51.5-70.5l-0.1,0c-4.4-1.5-33-37.6-36.4-34.7c-2.4-1.2-5.1-1.9-7.4-3.2c-21.5-11.7-61.7-2.7-87.8,4.6
		c-36.7,10.3-72.5,36-96.1,65.2c-5.5,1.6-50.7,43.7-56.6,43.1l-46.4,32.5"/>
	<path fill="none" stroke="#7482BF" stroke-width="0.3904" stroke-miterlimit="10" d="M66.2,266.3l-2.5,1.2c-8.7-3.6,3-6.6,0.4-18.6
		c8-19.8,30-51.1,57.2-62c2.8-1.1,12.2-3.6,16.1-4.9c21.8-7.2,83.7-10.7,105.7-4.6c2.7,0.8,5.5,2.3,8.3,1.8
		c4.1-0.8,28.1,9.5,31.9,11.1l105.2,48.9c2.9,1.3,10.5,5.1,13.2,6.7l30.3,16.4c6.7,4.8,26.7,15,34.1,18.2c18,7.8,37.3,12.3,57,12.4
		l0.4,0c2-1.6,107.5-5.3,107.9-7.5c27-2.1,52.9-11.2,75.3-26.3c0,0,0.3-0.2,0.3-0.2c51.2-26.3,51.5-40.5,34.9-43.5
		c-26.4-4.9-46.2,22.9-33.7,44.4c0,0-0.3,0-0.2,0c-3.8-0.2-7.9,1.3-11.5,4.2c1.1,3-37.2,25.9-38,28.9c-10.4,7.3-23.5,7.8-33.3,2.2
		c-18.6,20.8-62.3,17.7-90.3,20.4l-0.8,0.1c-17.9,1.7-47.6-9.8-65.2-13.3l-0.6-0.1c-23.4-4.7-59.4-32.8-72.3-52.9l-51.6-70.9l-0.1,0
		c-4.3-1.4-33-38.2-36.3-35.3c-2.4-1.3-5.1-2-7.4-3.3c-21.7-12-61.9-3.5-88.4,3.9c-36.9,10.2-72.9,36-96.5,65.5
		c-5.4,1.6-50.9,44.3-56.7,43.6l-46.4,33.1"/>
	<path fill="none" stroke="#7281BE" stroke-width="0.3904" stroke-miterlimit="10" d="M65.9,269.6l-2.6,1.1c-8.8-3.6,2.3-7-0.4-19.2
		c7.4-20.4,29.1-52.2,56.1-63.1c2.8-1.1,12.1-3.6,16-4.9c22.1-7.3,83.1-10.7,105.4-4.4c2.7,0.8,5.5,2.4,8.2,1.8
		c3.9-0.8,28.1,9.6,31.8,11.1l104.9,48.8c2.9,1.3,10.4,5,13.2,6.7l30.2,16.4c6.8,4.8,26.5,14.9,34,18.2
		c17.9,7.8,37.2,12.2,56.8,12.4l0.4,0c2-1.6,108.9-5.2,109.3-7.4c27.3-2,53.6-11.2,76.4-26.5c0,0,0.4-0.2,0.4-0.2
		c52-26.6,52.3-40.9,35.5-44c-26.7-4.9-46.8,23.3-34,45.1c0,0-0.2,0-0.2,0c-3.6-0.1-7.6,1.3-11.1,4.2c1.1,3-36,25.3-36.8,28.4
		c-10.1,7.1-22.8,7.8-32.4,2.4c-18.9,21.1-62.4,18.7-90.8,21.4l-0.8,0.1c-18.2,1.8-47.7-9.4-65.6-13l-0.7-0.1
		c-23.8-4.8-59.5-32.6-72.6-53L345,180.7l-0.1,0c-4.1-1.4-33.1-38.7-36.3-35.9c-2.4-1.3-5.1-2.1-7.5-3.4
		c-21.9-12.3-62.2-4.3-89.1,3.1c-37.1,10.2-73.3,35.9-96.8,65.7c-5.2,1.5-51.1,44.8-56.7,44.2l-46.5,33.6"/>
	<path fill="none" stroke="#7080BE" stroke-width="0.3904" stroke-miterlimit="10" d="M65.6,272.9l-2.8,1.1
		c-8.9-3.7,1.5-7.4-1.2-19.7c6.9-20.9,28.2-53.4,54.9-64.2c2.9-1.2,12-3.6,16-5c22.4-7.4,82.5-10.6,105.1-4.1
		c2.7,0.8,5.4,2.4,8.2,1.9c3.8-0.8,28.1,9.7,31.7,11.2l104.6,48.6c3,1.3,10.3,5,13.2,6.6l30.1,16.4c6.9,4.9,26.2,14.8,33.9,18.2
		c17.9,7.8,37.1,12.2,56.7,12.4l0.4,0c1.9-1.5,110.3-5.1,110.6-7.2c27.7-2,54.4-11.2,77.5-26.6c0,0,0.4-0.2,0.4-0.2
		c52.7-27,53.1-41.3,36.1-44.4c-27.1-4.9-47.3,23.7-34.3,45.8c0,0-0.2,0-0.2,0c-3.5-0.1-7.3,1.3-10.6,4.2
		c1.1,3.1-34.7,24.8-35.5,27.9c-9.8,7-22.1,7.7-31.5,2.6c-19.1,21.4-62.4,19.7-91.3,22.5l-0.8,0.1c-18.4,1.8-47.9-9-66-12.7
		l-0.7-0.1c-24.1-4.9-59.7-32.4-72.9-53.2l-51.7-71.6l-0.1,0c-4-1.3-33.2-39.2-36.2-36.5c-2.4-1.4-5.1-2.2-7.5-3.6
		c-22.2-12.6-62.4-5.1-89.7,2.3c-37.3,10.1-73.7,35.8-97.2,66c-5,1.5-51.3,45.3-56.7,44.7l-46.5,34.1"/>
	<path fill="none" stroke="#6F7EBD" stroke-width="0.3904" stroke-miterlimit="10" d="M65.4,276.2l-3,1.1c-9.1-3.7,0.8-7.8-2-20.3
		c6.4-21.4,27.3-54.5,53.7-65.3c2.9-1.2,11.9-3.7,15.9-5c22.7-7.5,81.9-10.5,104.8-3.9c2.7,0.8,5.4,2.5,8.2,1.9
		c3.7-0.8,28.2,9.8,31.6,11.3L379,244.3c3,1.4,10.3,5,13.1,6.6l30,16.3c7,5,26,14.7,33.8,18.1c17.8,7.8,37,12.2,56.5,12.4l0.4,0
		c1.8-1.5,111.7-5,112-7c28.1-1.9,55.1-11.2,78.6-26.7c0,0,0.4-0.2,0.4-0.2c53.5-27.3,53.9-41.8,36.7-44.9
		c-27.4-4.9-47.8,24.1-34.6,46.6c0,0-0.2,0-0.2,0c-3.4,0-7,1.4-10.2,4.1c1.2,3.1-33.5,24.2-34.3,27.4c-9.5,6.9-21.5,7.7-30.5,2.8
		c-19.4,21.7-62.5,20.7-91.7,23.5l-0.8,0.1c-18.7,1.8-48-8.7-66.4-12.4l-0.7-0.1c-24.5-4.9-59.8-32.3-73.2-53.3l-51.7-72l-0.1,0
		c-3.8-1.3-33.2-39.7-36.2-37.1c-2.5-1.4-5.1-2.3-7.5-3.7c-22.4-13-62.6-5.9-90.3,1.5c-37.5,10.1-74.1,35.8-97.6,66.2
		c-4.9,1.4-51.6,45.9-56.7,45.3l-46.5,34.7"/>
	<path fill="none" stroke="#6D7DBC" stroke-width="0.3904" stroke-miterlimit="10" d="M65.1,279.5l-3.2,1c-9.2-3.8,0-8.3-2.8-20.9
		c5.9-22,26.3-55.7,52.6-66.4c2.9-1.2,11.8-3.7,15.9-5c23-7.6,81.3-10.4,104.5-3.7c2.7,0.8,5.4,2.5,8.1,2
		c3.5-0.7,28.2,9.9,31.5,11.3L375.8,246c3.1,1.4,10.2,4.9,13.1,6.6l29.9,16.3c7.1,5,25.8,14.7,33.7,18.1
		c17.8,7.7,36.9,12.1,56.3,12.4l0.4,0c1.8-1.4,113.1-4.9,113.4-6.8c28.4-1.9,55.9-11.2,79.7-26.9c0,0,0.4-0.2,0.4-0.2
		c54.3-27.6,54.7-42.2,37.3-45.3c-27.7-4.9-48.3,24.5-34.9,47.3c0,0-0.2,0-0.2,0c-3.2,0-6.7,1.4-9.8,4.1c1.2,3.2-32.2,23.7-33,26.9
		c-9.2,6.7-20.8,7.6-29.6,3.1c-19.7,21.9-62.5,21.7-92.2,24.6l-0.8,0.1c-18.9,1.8-48.1-8.3-66.8-12.1l-0.7-0.1
		c-24.8-5-59.9-32.1-73.6-53.4l-51.8-72.4l-0.1,0c-3.7-1.3-33.3-40.2-36.2-37.7c-2.5-1.5-5.1-2.4-7.6-3.8
		c-22.6-13.3-62.8-6.7-90.9,0.7c-37.7,10-74.6,35.7-97.9,66.4c-4.7,1.4-51.8,46.4-56.8,45.8l-46.5,35.2"/>
	<path fill="none" stroke="#6C7CBC" stroke-width="0.3904" stroke-miterlimit="10" d="M64.8,282.8l-3.3,1c-9.3-3.9-0.7-8.7-3.6-21.5
		c5.4-22.5,25.4-56.8,51.4-67.5c3-1.2,11.7-3.7,15.8-5c23.3-7.7,80.7-10.4,104.2-3.5c2.7,0.8,5.4,2.6,8.1,2
		c3.4-0.7,28.2,10,31.4,11.4l103.8,48.1c3.1,1.4,10.1,4.9,13.1,6.6l29.8,16.3c7.2,5.1,25.6,14.6,33.6,18.1
		c17.7,7.7,36.8,12.1,56.2,12.4l0.4,0c1.7-1.3,114.5-4.8,114.8-6.7c28.8-1.8,56.6-11.2,80.8-27c0,0,0.4-0.2,0.4-0.2
		c55-27.9,55.5-42.7,38-45.8c-28-4.9-48.8,24.9-35.1,48c0,0-0.2,0-0.2,0c-3.1,0.1-6.4,1.5-9.3,4.1c1.2,3.2-30.9,23.1-31.8,26.4
		c-8.9,6.6-20.1,7.6-28.7,3.3c-19.9,22.2-62.6,22.7-92.6,25.6l-0.8,0.1c-19.2,1.9-48.3-8-67.2-11.8l-0.7-0.1
		c-25.1-5.1-60.1-31.9-73.9-53.5l-51.8-72.8l-0.1,0c-3.6-1.2-33.3-40.8-36.1-38.4c-2.5-1.5-5.2-2.5-7.6-3.9
		c-22.8-13.6-63-7.5-91.5,0c-37.9,9.9-75,35.6-98.3,66.7c-4.5,1.3-52,47-56.8,46.4l-46.6,35.8"/>
	<path fill="none" stroke="#6A7BBB" stroke-width="0.3904" stroke-miterlimit="10" d="M64.6,286.1l-3.5,0.9
		c-9.4-3.9-1.5-9.1-4.4-22.1c4.9-23,24.5-58,50.2-68.6c3-1.2,11.6-3.7,15.8-5.1c23.6-7.8,80.1-10.3,103.9-3.2c2.7,0.8,5.4,2.6,8.1,2
		c3.3-0.7,28.2,10.1,31.3,11.4l103.5,47.9c3.2,1.4,10.1,4.9,13.1,6.6l29.7,16.3c7.2,5.2,25.4,14.5,33.5,18
		c17.7,7.7,36.7,12.1,56,12.4l0.4,0c1.6-1.3,115.9-4.7,116.2-6.5c29.2-1.8,57.4-11.2,81.9-27.2c0,0,0.4-0.2,0.4-0.2
		c55.8-28.2,56.3-43.1,38.6-46.2c-28.4-4.9-49.3,25.3-35.4,48.8c0,0-0.2,0-0.2,0c-2.9,0.1-6.1,1.5-8.9,4.1
		c1.2,3.2-29.7,22.6-30.6,25.9c-8.6,6.5-19.4,7.5-27.8,3.5c-20.2,22.5-62.7,23.7-93.1,26.7l-0.8,0.1c-19.4,1.9-48.4-7.6-67.6-11.5
		l-0.7-0.1c-25.5-5.1-60.2-31.7-74.2-53.6L348,193.2l-0.1,0c-3.4-1.2-33.4-41.3-36.1-39c-2.5-1.5-5.2-2.6-7.6-4.1
		c-23.1-13.9-63.2-8.3-92.1-0.8c-38.2,9.9-75.4,35.6-98.6,66.9c-4.3,1.3-52.2,47.5-56.8,47l-46.6,36.3"/>
	<path fill="none" stroke="#697ABA" stroke-width="0.3904" stroke-miterlimit="10" d="M64.3,289.4l-3.7,0.9c-9.5-4-2.2-9.5-5.1-22.6
		c4.3-23.6,23.6-59.1,49.1-69.7c3.1-1.3,11.5-3.7,15.7-5.1c24-7.9,79.5-10.2,103.6-3c2.6,0.8,5.3,2.7,8.1,2.1
		c3.1-0.7,28.2,10.2,31.2,11.5l103.2,47.7c3.2,1.4,10,4.8,13,6.6l29.6,16.2c7.3,5.2,25.2,14.4,33.4,18c17.6,7.6,36.6,12,55.8,12.4
		l0.4,0c1.6-1.2,117.3-4.6,117.5-6.3c29.6-1.7,58.1-11.2,83-27.3c0,0,0.4-0.2,0.4-0.2c56.5-28.5,57.1-43.6,39.2-46.7
		c-28.7-4.9-49.9,25.7-35.7,49.5c0,0-0.2,0-0.2,0c-2.8,0.1-5.8,1.5-8.5,4.1c1.2,3.3-28.4,22-29.3,25.4c-8.3,6.4-18.7,7.5-26.9,3.7
		c-20.5,22.8-62.7,24.7-93.5,27.7l-0.9,0.1c-19.7,1.9-48.6-7.3-67.9-11.2L475,323c-25.8-5.2-60.3-31.5-74.5-53.7l-51.9-73.6l-0.1,0
		c-3.3-1.1-33.5-41.8-36-39.6c-2.5-1.6-5.2-2.7-7.6-4.2c-23.3-14.2-63.4-9.1-92.7-1.6c-38.4,9.8-75.8,35.5-99,67.2
		c-4.2,1.2-52.4,48-56.8,47.5L9.7,301.8"/>
	<path fill="none" stroke="#6778BA" stroke-width="0.3904" stroke-miterlimit="10" d="M64.1,292.7l-3.9,0.9c-9.7-4-3-9.9-5.9-23.2
		c3.8-24.1,22.7-60.3,47.9-70.8c3.1-1.3,11.4-3.7,15.7-5.1c24.3-8,78.9-10.2,103.3-2.8c2.6,0.8,5.3,2.7,8,2.1
		c3-0.7,28.2,10.4,31.1,11.6l103,47.5c3.2,1.5,9.9,4.8,13,6.6l29.5,16.2c7.4,5.3,24.9,14.4,33.3,18c17.6,7.6,36.5,12,55.7,12.4
		l0.4,0c1.5-1.2,118.6-4.5,118.9-6.2c29.9-1.7,58.9-11.2,84.1-27.4c0,0,0.4-0.2,0.4-0.3c57.3-28.8,57.9-44,39.8-47.1
		c-29-5-50.4,26.1-36,50.3c0,0-0.2,0-0.2,0c-2.6,0.2-5.5,1.6-8.1,4.1c1.2,3.3-27.2,21.5-28.1,24.9c-8,6.2-18.1,7.4-25.9,3.9
		c-20.7,23.1-62.8,25.8-94,28.8L545,337c-20,1.9-48.7-6.9-68.3-10.9L476,326c-26.1-5.3-60.4-31.3-74.8-53.8l-52-74l-0.1,0
		c-3.2-1.1-33.5-42.3-36-40.2c-2.5-1.6-5.2-2.8-7.7-4.3c-23.5-14.6-63.7-9.9-93.4-2.4c-38.6,9.8-76.2,35.4-99.3,67.4
		c-4,1.2-52.6,48.6-56.9,48.1L9.3,304.2"/>
	<path fill="none" stroke="#6577B9" stroke-width="0.3904" stroke-miterlimit="10" d="M63.8,296l-4,0.8C50,292.8,56,286.5,53,273
		c3.3-24.6,21.7-61.4,46.7-71.9c3.1-1.3,11.3-3.7,15.6-5.1c24.6-8.2,78.3-10.1,102.9-2.5c2.6,0.8,5.3,2.8,8,2.2
		c2.9-0.6,28.3,10.5,31,11.6l102.7,47.4c3.3,1.5,9.8,4.8,13,6.5l29.4,16.2c7.5,5.4,24.7,14.3,33.1,17.9
		c17.5,7.6,36.3,11.9,55.5,12.4l0.4,0c1.4-1.1,120-4.4,120.3-6c30.3-1.7,59.7-11.2,85.2-27.6c0,0,0.4-0.2,0.4-0.3
		c58-29.1,58.7-44.5,40.4-47.6c-29.3-5-50.9,26.4-36.3,51c0,0-0.2,0-0.2,0c-2.5,0.2-5.2,1.6-7.6,4.1c1.3,3.4-25.9,21-26.8,24.4
		c-7.7,6.1-17.4,7.4-25,4.1c-21,23.4-62.8,26.8-94.5,29.8l-0.9,0.1c-20.2,2-48.8-6.6-68.7-10.6L477,329
		c-26.5-5.4-60.6-31.2-75.1-53.9l-52-74.4l-0.1,0c-3-1-33.6-42.9-35.9-40.8c-2.5-1.7-5.2-2.9-7.7-4.5c-23.7-14.9-63.9-10.7-94-3.2
		c-38.8,9.7-76.6,35.4-99.7,67.6c-3.8,1.1-52.8,49.1-56.9,48.6l-46.7,38"/>
	<path fill="none" stroke="#6476B9" stroke-width="0.3904" stroke-miterlimit="10" d="M63.5,299.3l-4.2,0.8
		c-9.9-4.1-6.8-10.4-7.5-24.4c-1.4-25.3,20.8-62.5,45.6-73c3.2-1.3,11.2-3.7,15.5-5.1c24.9-8.3,77.7-10.1,102.6-2.3
		c2.6,0.8,5.3,1.4,8,2.2c2.8-0.1,28.3,10.6,30.9,11.7l102.4,47.2c3.3,1.5,9.8,4.7,12.9,6.5L399,279c7.6,5.4,24.5,14.2,33,17.9
		c17.5,7.6,36.2,11.9,55.3,12.4l0.4,0c1.4-1.1,121.4-4.3,121.7-5.8c30.7-1.6,60.4-11.2,86.3-27.7c0,0,0.4-0.2,0.4-0.3
		c58.8-29.4,59.5-44.9,41-48c-29.7-5-51.4,26.8-36.6,51.7c0,0-0.2,0-0.2,0c-2.3,0.3-4.9,1.7-7.2,4.1c1.3,3.4-24.6,20.4-25.6,23.9
		c-7.4,6-16.7,7.3-24.1,4.4c-21.3,23.7-62.9,27.8-94.9,30.9l-0.9,0.1c-20.5,2-49-6.2-69.1-10.3l-0.7-0.1c-26.8-5.4-60.7-31-75.5-54
		l-52.1-74.7l-0.1,0c-2.9-1-33.6-43.4-35.9-41.4c-2.5-1.7-5.2-3-7.7-4.6c-23.9-15.2-64.1-11.5-94.6-4c-39,9.6-77.1,35.3-100.1,67.9
		c-3.6,1.1-53,49.6-56.9,49.2L8.5,308.8"/>
	<path fill="none" stroke="#6275B8" stroke-width="0.3904" stroke-miterlimit="10" d="M63.3,302.6l-4.4,0.8c-10-4.2-7.4-10.8-8.3-25
		c-1.7-25.8,19.9-63.7,44.4-74.1c3.2-1.4,11-3.7,15.5-5.2c25.2-8.4,77.1-10,102.3-2.1c2.6,0.8,5.3,1.4,7.9,2.2
		c2.7-0.1,28.3,10.7,30.8,11.7l102.1,47c3.4,1.5,9.7,4.7,12.9,6.5l29.2,16.1c7.7,5.5,24.3,14.1,32.9,17.9
		c17.4,7.5,36.1,11.9,55.2,12.4l0.4,0c1.3-1,122.8-4.2,123-5.7c31.1-1.6,61.2-11.2,87.4-27.9c0,0,0.4-0.3,0.4-0.3
		c59.5-29.7,60.3-45.4,41.7-48.5c-30-5-51.9,27.2-36.9,52.5c0,0-0.2,0-0.1,0c-2.2,0.3-4.6,1.7-6.8,4c1.3,3.5-23.4,19.9-24.3,23.4
		c-7,5.8-16,7.3-23.2,4.6c-21.5,24-62.9,28.8-95.4,31.9l-0.9,0.1c-20.7,2-49.1-5.9-69.5-10l-0.7-0.2c-27.1-5.5-60.8-30.8-75.8-54.1
		L351,205.8l-0.1,0c-2.7-0.9-33.7-43.9-35.8-42.1c-2.5-1.7-5.2-3.1-7.8-4.7c-24.2-15.5-64.3-12.3-95.2-4.7
		c-39.2,9.6-77.5,35.2-100.4,68.1c-3.5,1-53.3,50.2-57,49.7L8.1,311.1"/>
	<path fill="none" stroke="#6074B7" stroke-width="0.3904" stroke-miterlimit="10" d="M63,305.9l-4.5,0.7c-10.2-4.2-8-11.2-9.1-25.5
		c-2-26.2,19-64.8,43.2-75.2c3.2-1.4,10.9-3.7,15.4-5.2c25.5-8.5,76.5-10,102-1.9c2.6,0.8,5.3,1.4,7.9,2.3
		c2.5-0.1,28.3,10.8,30.7,11.8l101.8,46.8c3.4,1.5,9.6,4.7,12.9,6.5l29.1,16.1c7.8,5.6,24.1,14.1,32.8,17.8
		c17.4,7.5,36,11.8,55,12.4l0.4,0c1.2-1,124.2-4.1,124.4-5.5c31.4-1.5,61.9-11.2,88.5-28c0,0,0.4-0.3,0.4-0.3
		c60.3-30.1,61.1-45.8,42.3-48.9c-30.3-5-52.4,27.6-37.1,53.2c0,0-0.1,0-0.1,0c-2,0.4-4.3,1.7-6.3,4c1.3,3.5-22.1,19.3-23.1,22.9
		c-6.7,5.7-15.4,7.2-22.3,4.8c-21.8,24.3-63,29.8-95.8,33l-0.9,0.1c-21,2-49.2-5.5-69.9-9.7l-0.7-0.2c-27.5-5.6-61-30.6-76.1-54.2
		l-52.2-75.5l-0.1,0c-2.6-0.9-33.7-44.4-35.8-42.7c-2.5-1.8-5.2-3.2-7.8-4.8c-24.4-15.8-64.5-13.1-95.8-5.5
		c-39.5,9.5-77.9,35.2-100.8,68.4c-3.3,1-53.5,50.7-57,50.3L7.7,313.5"/>
	<path fill="none" stroke="#5F73B7" stroke-width="0.3904" stroke-miterlimit="10" d="M62.7,309.2l-4.7,0.7
		c-10.3-4.3-8.6-11.7-9.9-26.1c-2.3-26.7,18.1-66,42-76.3c3.3-1.4,10.8-3.7,15.4-5.2c25.8-8.6,75.9-9.9,101.7-1.6
		c2.6,0.8,5.3,1.5,7.9,2.3c2.4-0.1,28.3,10.9,30.5,11.8l101.6,46.7c3.4,1.6,9.6,4.6,12.8,6.5l29,16c7.9,5.7,23.9,14,32.7,17.8
		c17.3,7.5,35.9,11.8,54.8,12.4l0.4,0c1.2-0.9,125.6-4,125.8-5.3c31.8-1.5,62.7-11.2,89.6-28.2c0,0,0.4-0.3,0.4-0.3
		c61.1-30.4,61.9-46.3,42.9-49.4c-30.7-5-53,28-37.4,53.9c0,0-0.1,0-0.1,0c-1.9,0.4-4,1.8-5.9,4c1.3,3.5-20.9,18.8-21.8,22.4
		c-6.4,5.6-14.7,7.2-21.3,5c-22.1,24.6-63.1,30.8-96.3,34l-0.9,0.1c-21.2,2-49.4-5.2-70.3-9.4l-0.8-0.2
		c-27.8-5.6-61.1-30.4-76.4-54.3l-52.2-75.9l-0.1,0c-2.5-0.8-33.8-45-35.7-43.3c-2.5-1.8-5.3-3.3-7.8-5
		c-24.6-16.2-64.7-13.9-96.4-6.3c-39.7,9.5-78.3,35.1-101.1,68.6c-3.1,0.9-53.7,51.2-57,50.9L7.3,315.8"/>
	<path fill="none" stroke="#5D72B6" stroke-width="0.3904" stroke-miterlimit="10" d="M62.5,312.5l-4.9,0.6
		c-10.4-4.3-9.3-12.1-10.7-26.7C44.3,259.2,64,219.3,87.8,209c3.3-1.4,10.7-3.7,15.3-5.2c26.1-8.7,75.3-9.9,101.4-1.4
		c2.6,0.8,5.2,1.5,7.8,2.4c2.3-0.1,28.3,11,30.4,11.9l101.3,46.5c3.5,1.6,9.5,4.6,12.8,6.5l28.9,16c8,5.7,23.6,13.9,32.6,17.8
		c17.3,7.4,35.8,11.8,54.7,12.4l0.4,0c1.1-0.9,127-3.9,127.2-5.1c32.2-1.4,63.4-11.2,90.7-28.3c0,0,0.4-0.3,0.4-0.3
		c61.8-30.7,62.7-46.7,43.5-49.8c-31-5-53.5,28.4-37.7,54.7c0,0-0.1,0-0.1,0c-1.7,0.5-3.7,1.8-5.5,4c1.3,3.6-19.6,18.2-20.6,21.9
		c-6.1,5.4-14,7.1-20.4,5.2c-22.3,24.9-63.1,31.8-96.8,35.1l-0.9,0.1c-21.5,2.1-49.5-4.8-70.7-9.1l-0.8-0.2
		c-28.1-5.7-61.2-30.2-76.7-54.4l-52.3-76.3l-0.1,0c-2.3-0.8-33.9-45.5-35.7-43.9c-2.5-1.9-5.3-3.4-7.9-5.1
		c-24.8-16.5-64.9-14.7-97-7.1c-39.9,9.4-78.7,35-101.5,68.8c-2.9,0.9-53.9,51.8-57,51.4L6.9,318.1"/>
	<path fill="none" stroke="#5B71B6" stroke-width="0.3904" stroke-miterlimit="10" d="M62.2,315.8l-5.1,0.6
		c-10.5-4.4-9.9-12.5-11.5-27.3c-2.9-27.7,16.2-68.3,39.7-78.5c3.4-1.5,10.6-3.7,15.3-5.3c26.4-8.8,74.7-9.8,101.1-1.2
		c2.6,0.8,5.2,1.5,7.8,2.4c2.1-0.1,28.3,11.1,30.3,12l101,46.3c3.5,1.6,9.4,4.5,12.8,6.5l28.8,16c8.1,5.8,23.4,13.8,32.5,17.7
		c17.2,7.4,35.7,11.7,54.5,12.4l0.4,0c1.1-0.8,128.4-3.8,128.5-5c32.5-1.4,64.2-11.2,91.8-28.4c0,0,0.4-0.3,0.4-0.3
		c62.6-31,63.5-47.1,44.1-50.3c-31.3-5-54,28.8-38,55.4c0,0-0.1,0-0.1,0c-1.6,0.5-3.4,1.9-5,4c1.3,3.6-18.3,17.7-19.3,21.3
		c-5.8,5.3-13.3,7.1-19.5,5.4c-22.6,25.2-63.2,32.8-97.2,36.1l-0.9,0.1c-21.7,2.1-49.7-4.5-71.1-8.8l-0.8-0.2
		c-28.5-5.8-61.4-30.1-77-54.5l-52.3-76.7l0,0c-2.2-0.7-33.9-46-35.6-44.5c-2.5-1.9-5.3-3.5-7.9-5.2c-25-16.8-65.1-15.4-97.7-7.9
		c-40.1,9.4-79.2,35-101.8,69.1c-2.8,0.8-54.1,52.3-57.1,52L6.5,320.5"/>
	<path fill="none" stroke="#5A6FB5" stroke-width="0.3904" stroke-miterlimit="10" d="M61.9,319.1l-5.2,0.6
		c-10.7-4.4-10.5-12.9-12.3-27.9c-3.2-28.2,15.3-69.4,38.5-79.6c3.4-1.5,10.5-3.7,15.2-5.3c26.8-8.9,74.2-9.8,100.8-0.9
		c2.6,0.9,5.2,1.5,7.8,2.4c2-0.1,28.4,11.2,30.2,12l100.7,46.1c3.6,1.6,9.3,4.5,12.7,6.5l28.6,16c8.2,5.9,23.2,13.8,32.4,17.7
		c17.2,7.4,35.6,11.7,54.3,12.4l0.4,0c1-0.8,129.7-3.7,129.9-4.8c32.9-1.3,64.9-11.2,92.9-28.6c0,0,0.4-0.3,0.4-0.3
		c63.3-31.3,64.3-47.6,44.7-50.7c-31.6-5-54.5,29.2-38.3,56.1c0,0-0.1,0-0.1,0c-1.4,0.5-3.1,1.9-4.6,4c1.4,3.7-17.1,17.1-18.1,20.8
		c-5.5,5.2-12.6,7-18.6,5.7c-22.9,25.5-63.2,33.8-97.7,37.1l-1,0.1c-22,2.1-49.8-4.1-71.5-8.5l-0.8-0.2
		c-28.8-5.8-61.5-29.9-77.3-54.6L354,218.3l0,0c-2.1-0.7-34-46.5-35.6-45.1c-2.5-2-5.3-3.6-7.9-5.4c-25.2-17.1-65.4-16.2-98.3-8.6
		c-40.3,9.3-79.6,34.9-102.2,69.3c-2.6,0.8-54.3,52.8-57.1,52.5L6.1,322.8"/>
	<path fill="none" stroke="#586EB4" stroke-width="0.3904" stroke-miterlimit="10" d="M61.7,322.4l-5.4,0.5
		c-10.8-4.5-11.2-13.3-13.1-28.4c-3.6-28.7,14.4-70.6,37.4-80.7c3.4-1.5,10.4-3.7,15.2-5.3c27.1-9,73.6-9.7,100.5-0.7
		c2.6,0.9,5.2,1.6,7.8,2.5c1.9-0.1,28.4,11.4,30.1,12.1l100.5,46c3.6,1.6,9.3,4.5,12.7,6.4l28.5,15.9c8.3,5.9,23,13.7,32.3,17.7
		c17.1,7.4,35.5,11.7,54.2,12.4l0.4,0c0.9-0.7,131.1-3.6,131.3-4.6c33.3-1.3,65.7-11.2,94-28.7c0,0,0.4-0.3,0.4-0.3
		c64.1-31.6,65.1-48,45.4-51.2c-32-5.1-55,29.6-38.6,56.9c0,0-0.1,0-0.1,0c-1.3,0.6-2.8,1.9-4.2,4c1.4,3.7-15.8,16.6-16.8,20.3
		c-5.2,5.1-12,7-17.7,5.9c-23.1,25.8-63.3,34.8-98.1,38.2l-1,0.1c-22.3,2.1-49.9-3.8-71.9-8.2l-0.8-0.2
		c-29.1-5.9-61.6-29.7-77.7-54.7l-52.4-77.5l0,0c-1.9-0.7-34-47-35.5-45.7c-2.6-2-5.3-3.7-7.9-5.5c-25.4-17.5-65.6-17-98.9-9.4
		c-40.6,9.2-80,34.8-102.5,69.6c-2.4,0.7-54.5,53.4-57.1,53.1L5.7,325.1"/>
	<path fill="none" stroke="#566DB4" stroke-width="0.3904" stroke-miterlimit="10" d="M61.4,325.7l-5.6,0.5
		c-10.9-4.5-11.8-13.8-13.8-29c-3.9-29.2,13.5-71.7,36.2-81.8c3.5-1.5,10.3-3.7,15.1-5.3c27.4-9.1,73-9.7,100.2-0.5
		c2.6,0.9,5.2,1.6,7.7,2.5c1.7-0.1,28.4,11.5,30,12.1L331.4,270c3.6,1.6,9.2,4.4,12.7,6.4l28.4,15.9c8.4,6,22.8,13.6,32.2,17.6
		c17.1,7.3,35.4,11.6,54,12.4l0.4,0c0.9-0.7,132.5-3.5,132.7-4.5c33.7-1.2,66.4-11.2,95.1-28.9c0,0,0.4-0.3,0.4-0.3
		c64.8-31.9,65.9-48.5,46-51.6c-32.3-5.1-55.6,30-38.8,57.6c0,0-0.1,0-0.1,0c-1.2,0.6-2.5,2-3.7,4c1.4,3.8-14.6,16.1-15.6,19.8
		c-4.9,4.9-11.3,6.9-16.8,6.1c-23.4,26.1-63.3,35.8-98.6,39.2l-1,0.1c-22.5,2.2-50.1-3.4-72.3-7.9l-0.8-0.2
		c-29.5-6-61.7-29.5-78-54.8l-52.5-77.9l0,0c-1.8-0.6-34.1-47.6-35.5-46.4c-2.6-2-5.3-3.8-8-5.6c-25.6-17.8-65.8-17.8-99.5-10.2
		c-40.8,9.2-80.4,34.8-102.9,69.8c-2.3,0.7-54.7,53.9-57.1,53.6L5.3,327.4"/>
	<path fill="none" stroke="#556CB3" stroke-width="0.3904" stroke-miterlimit="10" d="M61.1,329l-5.7,0.5
		c-11-4.6-12.5-14.2-14.6-29.6c-4.2-29.7,12.5-72.9,35-82.9c3.5-1.6,10.2-3.7,15.1-5.4c27.7-9.2,72.4-9.7,99.9-0.3
		c2.5,0.9,5.1,1.6,7.7,2.6c1.6-0.1,28.4,11.6,29.9,12.2l99.9,45.6c3.7,1.7,9.1,4.4,12.6,6.4l28.3,15.9c8.5,6.1,22.6,13.5,32.1,17.6
		c17,7.3,35.2,11.6,53.9,12.4l0.4,0c0.8-0.6,133.9-3.4,134-4.3c34-1.2,67.2-11.2,96.2-29c0,0,0.4-0.3,0.4-0.3
		c65.6-32.2,66.7-48.9,46.6-52.1c-32.6-5.1-56.1,30.4-39.1,58.3c0,0-0.1,0-0.1,0c-1,0.7-2.2,2-3.3,4c1.4,3.8-13.3,15.5-14.3,19.3
		c-4.6,4.8-10.6,6.9-15.8,6.3c-23.6,26.4-63.4,36.9-99,40.3l-1,0.1c-22.8,2.2-50.2-3.1-72.6-7.6l-0.8-0.2
		c-29.8-6-61.9-29.3-78.3-54.9l-52.5-78.2l0,0c-1.6-0.6-34.1-48.1-35.4-47c-2.6-2.1-5.3-3.9-8-5.7c-25.8-18.1-66-18.6-100.1-11
		c-41,9.1-80.8,34.7-103.3,70c-2.1,0.6-54.9,54.5-57.2,54.2L4.9,329.8"/>
	<path fill="none" stroke="#536BB2" stroke-width="0.3904" stroke-miterlimit="10" d="M60.9,332.3l-5.9,0.4
		c-11.2-4.6-13.1-14.6-15.4-30.2c-4.5-30.3,11.6-74,33.9-84c3.5-1.6,10.1-3.8,15-5.4c28-9.3,71.8-9.6,99.6,0
		c2.5,0.9,5.1,1.7,7.7,2.6c1.5-0.1,28.4,11.7,29.8,12.3l99.6,45.4c3.7,1.7,9.1,4.4,12.6,6.4l28.2,15.8c8.6,6.1,22.3,13.5,31.9,17.6
		c17,7.3,35.1,11.6,53.7,12.4l0.4,0c0.7-0.6,135.3-3.3,135.4-4.1c34.4-1.1,67.9-11.2,97.3-29.2c0,0,0.5-0.3,0.5-0.3
		c66.4-32.5,67.5-49.4,47.2-52.5c-32.9-5.1-56.6,30.8-39.4,59.1c0,0-0.1,0-0.1,0c-0.9,0.7-1.9,2.1-2.9,3.9
		c1.4,3.8-12.1,15-13.1,18.8c-4.3,4.7-9.9,6.8-14.9,6.5c-23.9,26.7-63.5,37.9-99.5,41.3l-1,0.1c-23,2.2-50.4-2.7-73-7.3l-0.8-0.2
		c-30.1-6.1-62-29.1-78.6-55l-52.6-78.6l0,0c-1.5-0.5-34.2-48.6-35.4-47.6c-2.6-2.1-5.3-4-8-5.9c-26-18.4-66.2-19.4-100.7-11.8
		c-41.2,9.1-81.2,34.7-103.6,70.3c-1.9,0.6-55.2,55-57.2,54.8l-46.9,44"/>
	<path fill="none" stroke="#516AB2" stroke-width="0.3904" stroke-miterlimit="10" d="M60.6,335.6l-6.1,0.4
		c-11.3-4.7-13.8-15-16.2-30.8C33.5,274.4,49,230.1,71,220.1c3.6-1.6,10-3.8,15-5.4c28.3-9.4,71.2-9.6,99.3,0.2
		c2.5,0.9,5.1,1.7,7.6,2.7c1.3-0.1,28.4,11.8,29.7,12.3l99.3,45.3c3.8,1.7,9,4.3,12.6,6.4l28.1,15.8c8.7,6.2,22.1,13.4,31.8,17.5
		c16.9,7.2,35,11.5,53.5,12.4l0.5,0c0.7-0.5,136.7-3.2,136.8-3.9c34.8-1.1,68.7-11.2,98.4-29.3c0,0,0.5-0.3,0.5-0.3
		c67.1-32.9,68.3-49.8,47.8-53c-33.3-5.1-57.1,31.2-39.7,59.8c0,0-0.1,0,0,0.1c-0.7,0.8-1.6,2.1-2.5,3.9
		c1.4,3.9-10.8,14.4-11.8,18.3c-4,4.5-9.3,6.8-14,6.7c-24.2,27-63.5,38.9-100,42.4l-1,0.1c-23.3,2.2-50.5-2.4-73.4-7l-0.8-0.2
		c-30.5-6.2-62.1-28.9-78.9-55.1l-52.6-79l0,0c-1.4-0.5-34.3-49.1-35.3-48.2c-2.6-2.2-5.3-4.1-8.1-6
		c-26.3-18.7-66.4-20.1-101.3-12.6c-41.5,9-81.7,34.6-104,70.5c-1.7,0.5-55.4,55.5-57.2,55.3L4.1,334.4"/>
	<path fill="none" stroke="#4F69B1" stroke-width="0.3904" stroke-miterlimit="10" d="M60.3,338.9l-6.3,0.3
		c-11.4-4.7-14.4-15.5-17-31.4c-5.1-31.3,9.8-76.3,31.5-86.2c3.6-1.6,9.9-3.8,14.9-5.4c28.6-9.5,70.6-9.6,99,0.4
		c2.5,0.9,5.1,1.7,7.6,2.7c1.2-0.1,28.5,11.9,29.6,12.4l99.1,45.1c3.8,1.7,8.9,4.3,12.6,6.4l28,15.8c8.8,6.3,21.9,13.3,31.7,17.5
		c16.9,7.2,34.9,11.5,53.4,12.4l0.5,0c0.6-0.5,138.1-3.1,138.2-3.8c35.1-1,69.4-11.2,99.5-29.4c0,0,0.5-0.3,0.5-0.3
		c67.9-33.2,69.1-50.3,48.4-53.4c-33.6-5.1-57.6,31.6-40,60.6c0,0-0.1,0,0,0.1c-0.6,0.8-1.3,2.1-2,3.9c1.5,3.9-9.5,13.9-10.6,17.8
		c-3.6,4.4-8.6,6.7-13.1,7c-24.4,27.3-63.6,39.9-100.4,43.4l-1,0.1c-23.5,2.3-50.6-2-73.8-6.7l-0.8-0.2
		c-30.8-6.2-62.3-28.8-79.2-55.2l-52.7-79.4l0,0c-1.2-0.4-34.3-49.7-35.3-48.8c-2.6-2.2-5.4-4.2-8.1-6.1
		c-26.5-19.1-66.6-20.9-102-13.3c-41.7,9-82.1,34.5-104.3,70.8c-1.6,0.5-55.6,56.1-57.2,55.9l-47,45"/>
	<path fill="none" stroke="#4D68B1" stroke-width="0.3904" stroke-miterlimit="10" d="M60.1,342.2l-6.4,0.3
		c-11.5-4.8-15-15.9-17.8-31.9c-5.5-31.9,8.8-77.4,30.4-87.3c3.6-1.7,9.7-3.8,14.8-5.5c28.9-9.6,70.1-9.5,98.6,0.7
		c2.5,0.9,5.1,1.7,7.6,2.7c1.1,0,28.5,12,29.5,12.4l98.8,44.9c3.9,1.7,8.9,4.3,12.5,6.4l27.9,15.8c8.9,6.3,21.7,13.2,31.6,17.5
		c16.8,7.2,34.8,11.4,53.2,12.4l0.5,0c0.5-0.4,139.5-3,139.6-3.6c35.5-1,70.2-11.2,100.6-29.6c0,0,0.5-0.3,0.5-0.3
		c68.6-33.5,69.9-50.7,49.1-53.9c-33.9-5.1-58.1,32-40.3,61.3c0,0,0,0,0,0.1c-0.4,0.9-1,2.2-1.6,3.9c1.5,4-8.3,13.3-9.3,17.3
		c-3.3,4.3-7.9,6.7-12.2,7.2c-24.7,27.6-63.6,40.9-100.9,44.5l-1,0.1c-23.8,2.3-50.8-1.7-74.2-6.4l-0.8-0.2
		c-31.2-6.3-62.4-28.6-79.5-55.3l-52.7-79.8l0,0c-1.1-0.4-34.4-50.2-35.2-49.4c-2.6-2.3-5.4-4.3-8.1-6.3
		c-26.7-19.4-66.8-21.7-102.6-14.1c-41.9,8.9-82.5,34.5-104.7,71c-1.4,0.4-55.8,56.6-57.3,56.4l-47,45.6"/>
	<path fill="none" stroke="#4C67B0" stroke-width="0.3904" stroke-miterlimit="10" d="M59.8,345.5l-6.6,0.3
		c-11.7-4.8-15.7-16.3-18.6-32.5c-5.8-32.4,7.9-78.6,29.2-88.4c3.7-1.7,9.6-3.8,14.8-5.5c29.2-9.7,69.5-9.5,98.3,0.9
		c2.5,0.9,5,1.8,7.5,2.8c0.9,0,28.5,12.1,29.4,12.5l98.5,44.7c3.9,1.8,8.8,4.2,12.5,6.4l27.8,15.7c9,6.4,21.5,13.2,31.5,17.4
		c16.8,7.2,34.7,11.4,53,12.4l0.5,0c0.5-0.4,140.8-2.9,140.9-3.4c35.9-0.9,70.9-11.2,101.7-29.7c0,0,0.5-0.3,0.5-0.3
		c69.4-33.8,70.7-51.1,49.7-54.3c-34.3-5.1-58.7,32.4-40.6,62c0,0,0,0,0,0.1c-0.3,0.9-0.7,2.2-1.2,3.9c1.5,4-7,12.8-8.1,16.8
		c-3,4.1-7.2,6.6-11.2,7.4c-25,27.9-63.7,41.9-101.3,45.5l-1,0.1c-24,2.3-50.9-1.3-74.6-6.1l-0.9-0.2c-31.5-6.4-62.5-28.4-79.9-55.4
		l-52.8-80.2l0,0c-1-0.3-34.4-50.7-35.2-50.1c-2.6-2.3-5.4-4.4-8.1-6.4c-26.9-19.7-67.1-22.5-103.2-14.9
		c-42.1,8.8-82.9,34.4-105,71.3c-1.2,0.4-56,57.1-57.3,57l-47,46.1"/>
	<path fill="none" stroke="#4A66B0" stroke-width="0.3904" stroke-miterlimit="10" d="M59.5,348.8l-6.8,0.2
		c-11.8-4.9-16.4-16.7-19.4-33.1c-6.1-33,7-79.7,28-89.5c3.7-1.7,9.5-3.8,14.7-5.5c29.6-9.8,68.9-9.5,98,1.1c2.5,0.9,5,1.8,7.5,2.8
		c0.8,0,28.5,12.2,29.3,12.5l98.2,44.6c3.9,1.8,8.7,4.2,12.5,6.3l27.7,15.7c9.1,6.5,21.3,13.1,31.4,17.4
		c16.7,7.1,34.6,11.4,52.9,12.4l0.5,0c0.4-0.3,142.2-2.8,142.3-3.3c36.3-0.9,71.7-11.2,102.8-29.9c0,0,0.5-0.3,0.5-0.3
		c70.1-34.1,71.5-51.6,50.3-54.7c-34.6-5.1-59.2,32.8-40.8,62.8c0,0,0,0,0,0.1c-0.1,1-0.4,2.3-0.7,3.9c1.5,4-5.1,12.5-6.8,16.3
		c-2,4.4-6.5,6.6-10.3,7.6c-25.2,28.2-63.8,42.9-101.8,46.6l-1.1,0.1c-24.3,2.3-51.1-1-75-5.8l-0.9-0.2
		c-31.8-6.4-62.7-28.2-80.2-55.5l-52.8-80.6l0,0c-0.8-0.3-34.5-51.2-35.1-50.7c-2.6-2.3-5.4-4.5-8.2-6.5
		c-27.1-20-67.3-23.3-103.8-15.7c-42.4,8.8-83.3,34.3-105.4,71.5c-1,0.3-56.2,57.7-57.3,57.5l-47,46.7"/>
	<path fill="none" stroke="#4865AF" stroke-width="0.3904" stroke-miterlimit="10" d="M59.3,352.1l-6.9,0.2
		c-11.9-4.9-17-17.2-20.2-33.7c-6.4-33.5,6.1-80.9,26.8-90.6c3.7-1.8,9.4-3.8,14.7-5.5c29.9-9.9,68.3-9.5,97.7,1.3
		c2.5,0.9,5,1.8,7.5,2.9c0.7,0,28.5,12.3,29.1,12.6l98,44.4c4,1.8,8.6,4.2,12.4,6.3l27.6,15.7c9.2,6.5,21,13,31.3,17.4
		c16.6,7.1,34.5,11.3,52.7,12.4l0.5,0c0.3-0.3,143.6-2.7,143.7-3.1c36.6-0.8,72.4-11.2,103.9-30c0,0,0.5-0.3,0.5-0.3
		c70.9-34.4,72.3-52,50.9-55.2c-34.9-5.1-59.7,33.2-41.1,63.5c0,0,0,0,0,0.1c0,1-0.1,2.3-0.3,3.9c1.5,4.1-3.9,11.9-5.6,15.8
		c-1.8,4.2-5.9,6.5-9.4,7.8c-25.5,28.5-63.8,43.9-102.3,47.6l-1.1,0.1c-24.6,2.4-51.2-0.6-75.4-5.5l-0.9-0.2
		c-32.2-6.5-62.8-28-80.5-55.6l-52.9-81l0,0c-0.7-0.2-34.6-51.8-35.1-51.3c-2.6-2.4-5.4-4.6-8.2-6.6c-27.3-20.3-67.5-24-104.4-16.5
		c-42.6,8.7-83.7,34.3-105.7,71.7c-0.9,0.3-56.4,58.2-57.4,58.1l-47,47.2"/>
	<path fill="none" stroke="#4664AE" stroke-width="0.3904" stroke-miterlimit="10" d="M59,355.4l-7.1,0.2c-12-5-17.7-17.6-21-34.3
		c-6.8-34.1,5.1-82,25.7-91.7c3.8-1.8,9.3-3.8,14.6-5.6c30.2-10,67.7-9.4,97.4,1.6c2.5,0.9,5,1.9,7.4,2.9c0.5,0,28.5,12.5,29,12.7
		l97.7,44.2c4,1.8,8.6,4.1,12.4,6.3l27.5,15.6c9.2,6.6,20.8,13,31.2,17.4c16.6,7.1,34.4,11.3,52.5,12.4l0.5,0
		c0.3-0.2,145-2.6,145.1-2.9c37-0.8,73.2-11.2,105-30.1c0,0,0.5-0.3,0.5-0.3c71.7-34.7,73.1-52.5,51.5-55.6
		c-35.2-5.1-60.2,33.6-41.4,64.2c0,0,0,0,0,0.1c0.2,1,0.2,2.3,0.1,3.9c1.5,4.1-2.7,11.3-4.3,15.3c-1.6,4-5.2,6.5-8.5,8
		c-25.8,28.8-63.9,44.9-102.7,48.7l-1.1,0.1c-24.8,2.4-51.3-0.3-75.8-5.2l-0.9-0.2c-32.5-6.6-62.9-27.8-80.8-55.7l-52.9-81.3l0,0
		c-0.5-0.2-34.6-52.3-35-51.9c-2.6-2.4-5.4-4.6-8.2-6.8c-27.5-20.7-67.7-24.8-105-17.2c-42.8,8.7-84.2,34.2-106.1,72
		c-0.7,0.2-56.6,58.7-57.4,58.7L1.7,348.4"/>
	<path fill="none" stroke="#4463AE" stroke-width="0.3904" stroke-miterlimit="10" d="M58.7,358.7l-7.3,0.1
		c-12.2-5-18.3-18-21.8-34.8c-7.1-34.7,4.2-83.2,24.5-92.8c3.8-1.8,9.2-3.8,14.6-5.6c30.5-10.1,67.2-9.4,97.1,1.8
		c2.5,0.9,5,1.9,7.4,2.9c0.4,0,28.6,12.6,28.9,12.7l97.4,44.1c4.1,1.8,8.5,4.1,12.4,6.3l27.4,15.6c9.3,6.7,20.6,12.9,31.1,17.3
		c16.5,7.1,34.3,11.3,52.4,12.4l0.5,0c0.2-0.2,146.4-2.5,146.4-2.8c37.4-0.7,73.9-11.2,106.1-30.3c0,0,0.5-0.3,0.5-0.3
		c72.4-35,73.9-52.9,52.1-56.1c-35.6-5.1-60.7,33.9-41.7,65c0,0,0,0,0,0.1c0.5,1,0.3,2.4,0.6,3.8c0.9,4.4-1.6,10.7-3.1,14.8
		c-1.4,3.8-4.8,6-7.6,8.3c-30.2,24.8-63.9,45.9-103.2,49.7l-1.1,0.1c-25.1,2.4-51.5,0.1-76.2-4.9l-0.9-0.2
		c-32.8-6.6-63-27.7-81.1-55.8l-53-81.7l0,0c-0.4-0.1-34.7-52.8-35-52.5c-2.6-2.5-5.4-4.7-8.3-6.9c-27.7-21-67.9-25.6-105.7-18
		c-43,8.6-84.6,34.1-106.5,72.2c-0.5,0.2-56.9,59.3-57.4,59.2L1.3,350.7"/>
	<path fill="none" stroke="#4362AD" stroke-width="0.3904" stroke-miterlimit="10" d="M58.5,362l-7.5,0.1
		c-12.3-5.1-19-18.5-22.5-35.4c-7.4-35.2,3.3-84.3,23.3-93.9c3.8-1.8,9.1-3.8,14.5-5.6c30.8-10.2,66.6-9.4,96.8,2
		c2.5,0.9,4.9,1.9,7.4,3c0.3,0,28.6,12.7,28.8,12.8l97.1,43.9c4.1,1.9,8.4,4,12.3,6.3l27.3,15.6c9.4,6.7,20.4,12.8,31,17.3
		c16.5,7,34.1,11.2,52.2,12.4l0.5,0c0.1-0.1,147.8-2.4,147.8-2.6c37.8-0.7,74.7-11.2,107.2-30.4c0,0,0.5-0.3,0.5-0.3
		c73.2-35.3,74.7-53.4,52.8-56.5c-35.9-5.2-61.2,34.3-42,65.7c0,0,0,0,0,0.1c0.5,1.1,0.6,2.4,1,3.8c1.1,4.4-0.4,10.1-1.9,14.3
		c-1.2,3.6-4.1,6.1-6.7,8.5c-29.2,26.5-64,46.9-103.6,50.8l-1.1,0.1c-25.3,2.4-51.6,0.4-76.6-4.6l-0.9-0.2
		c-33.2-6.7-63.2-27.5-81.4-56l-53-82.1l0,0c-0.3-0.1-34.7-53.3-34.9-53.1c-2.6-2.5-5.4-4.8-8.3-7c-27.9-21.3-68.1-26.4-106.3-18.8
		c-43.3,8.6-85,34.1-106.8,72.5c-0.3,0.1-57.1,59.8-57.4,59.8L0.9,353"/>
	<path fill="none" stroke="#4161AD" stroke-width="0.3904" stroke-miterlimit="10" d="M58.2,365.3l-7.6,0
		c-12.4-5.1-19.6-18.9-23.3-36c-7.7-35.8,2.4-85.5,22.2-95c3.9-1.9,9-3.8,14.5-5.6c31.1-10.3,66-9.4,96.5,2.3c2.5,0.9,4.9,1.9,7.4,3
		c0.1,0,28.6,12.8,28.7,12.8l96.8,43.7c4.1,1.9,8.4,4,12.3,6.3l27.2,15.5c9.5,6.8,20.2,12.7,30.9,17.3c16.5,7,34,11.2,52,12.4l0.5,0
		c0.1-0.1,149.2-2.3,149.2-2.4c38.1-0.6,75.4-11.2,108.3-30.6c0,0,0.5-0.3,0.5-0.3c73.9-35.7,75.5-53.8,53.4-57
		c-36.2-5.2-61.7,34.7-42.3,66.4c0,0,0,0.1,0,0.1c0.6,1.2,1,2.5,1.4,3.8c1.4,4.3,0.7,9.6-0.6,13.8c-1,3.4-3.3,6.2-5.7,8.7
		c-28.1,28.3-64,47.9-104.1,51.8l-1.1,0.1c-25.6,2.5-51.8,0.8-76.9-4.3l-0.9-0.2c-33.5-6.8-63.3-27.3-81.7-56.1l-53.1-82.5l0,0
		c-0.1,0-34.8-53.9-34.9-53.8c-2.6-2.6-5.4-4.9-8.3-7.2c-28.1-21.6-68.3-27.1-106.9-19.6c-43.5,8.5-85.4,34-107.2,72.7
		C105,245.7,47.9,306,47.7,306L0.5,355.4"/>
	<path fill="none" stroke="#3F60AC" stroke-width="0.3904" stroke-miterlimit="10" d="M57.9,368.6h-7.8
		C11.2,352.5,18.1,250,47,235.9c3.9-1.9,8.9-3.8,14.4-5.7c33.9-11.3,70.9-9.2,103.5,5.5l125.2,56.4c4.2,1.9,8.3,4,12.3,6.3
		l27.1,15.5c24.3,17.3,52.9,27.6,82.6,29.6l0.5,0l150.6-2.2c38.5-0.6,76.2-11.2,109.4-30.7l0.5-0.3c74.7-36,76.3-54.3,54-57.4
		c-36.5-5.2-62.3,35.2-42.9,66.6l0.4,0.6c5.1,8.3,4.2,18.9-2.3,26.1c-26.8,30-64.1,49-104.5,52.9l-1.1,0.1
		c-25.8,2.5-51.9,1.1-77.3-4l-0.9-0.2c-33.8-6.8-63.4-27.1-82.1-56.2l-88-137.3c-57.2-56.2-180.4-32-223.4,45.3L0.1,357.7"/>
</g>
<rect x="67.3" y="87.8" fill="none" stroke="#545554" stroke-width="6.5018" stroke-miterlimit="10" width="654.1" height="237"/>
<text transform="matrix(1 0 0 1 98.8939 266.6832)" fill="#545554" font-family="'JosefinSans-Bold'" font-size="181.3132">M I S T</text>
</svg>
