<?xml version="1.0" encoding="UTF-8" standalone="no"?>
<svg width="612px" height="385px" viewBox="0 0 612 385" version="1.1" xmlns="http://www.w3.org/2000/svg" xmlns:xlink="http://www.w3.org/1999/xlink" xmlns:sketch="http://www.bohemiancoding.com/sketch/ns">
    <!-- Generator: Sketch 3.0.2 (7799) - http://www.bohemiancoding.com/sketch -->
    <title>logo 2 + Functional problem s</title>
    <description>Created with Sketch.</description>
    <defs>
        <filter x="-50%" y="-50%" width="200%" height="200%" filterUnits="objectBoundingBox" id="filter-1">
            <feOffset dx="0" dy="1" in="SourceAlpha" result="shadowOffsetInner1"></feOffset>
            <feGaussianBlur stdDeviation="1.5" in="shadowOffsetInner1" result="shadowBlurInner1"></feGaussianBlur>
            <feComposite in="shadowBlurInner1" in2="SourceAlpha" operator="arithmetic" k2="-1" k3="1" result="shadowInnerInner1"></feComposite>
            <feColorMatrix values="0 0 0 0 0   0 0 0 0 0   0 0 0 0 0  0 0 0 0.35 0" in="shadowInnerInner1" type="matrix" result="shadowMatrixInner1"></feColorMatrix>
            <feMerge>
                <feMergeNode in="SourceGraphic"></feMergeNode>
                <feMergeNode in="shadowMatrixInner1"></feMergeNode>
            </feMerge>
        </filter>
        <filter x="-50%" y="-50%" width="200%" height="200%" filterUnits="objectBoundingBox" id="filter-2">
            <feOffset dx="0" dy="1" in="SourceAlpha" result="shadowOffsetInner1"></feOffset>
            <feGaussianBlur stdDeviation="1.5" in="shadowOffsetInner1" result="shadowBlurInner1"></feGaussianBlur>
            <feComposite in="shadowBlurInner1" in2="SourceAlpha" operator="arithmetic" k2="-1" k3="1" result="shadowInnerInner1"></feComposite>
            <feColorMatrix values="0 0 0 0 0   0 0 0 0 0   0 0 0 0 0  0 0 0 0.35 0" in="shadowInnerInner1" type="matrix" result="shadowMatrixInner1"></feColorMatrix>
            <feMerge>
                <feMergeNode in="SourceGraphic"></feMergeNode>
                <feMergeNode in="shadowMatrixInner1"></feMergeNode>
            </feMerge>
        </filter>
    </defs>
    <g id="Welcome" stroke="none" stroke-width="1" fill="none" fill-rule="evenodd" sketch:type="MSPage">
        <g id="onClickLogin" sketch:type="MSArtboardGroup" transform="translate(-205.000000, -125.000000)">
            <g id="logo-2-+-Functional-problem-s" sketch:type="MSLayerGroup" transform="translate(203.000000, 126.000000)">
                <g id="logo-2" sketch:type="MSShapeGroup">
                    <g id="BOX-+-sky-2" fill="#D8D8D8">
                        <path d="M156.950095,43.6726922 L132.346238,43.6726922 L103.078905,76.0768589 L102.596476,76.0768589 L102.596476,-0.602307807 L83.2993333,-0.602307807 L83.2993333,120.672692 L102.596476,120.672692 L102.596476,81.2101922 L103.078905,81.2101922 L133.632714,120.672692 L159.201429,120.672692 L123.662524,78.4831089 L156.888752,43.9038914 L189.916048,120.672692 L186.056619,130.458109 C185.198964,132.490063 184.394924,134.254629 183.644476,135.751859 C183.269252,136.500474 182.867229,137.188927 182.438405,137.817224 C182.009581,138.445521 181.553955,139.013662 181.071524,139.521651 C180.106662,140.537628 178.927404,141.286231 177.533714,141.767484 C176.140025,142.248736 174.42474,142.489359 172.38781,142.489359 C171.315741,142.489359 170.163284,142.409151 168.930405,142.248734 C167.697526,142.088316 166.437864,141.794222 165.151381,141.366442 L163.543286,158.049776 C165.258596,158.477555 166.947079,158.77165 168.608786,158.932067 C170.270492,159.092485 171.905373,159.172692 173.513476,159.172692 C177.801752,159.172692 181.473532,158.691447 184.528929,157.728942 C187.584325,156.766437 190.237655,155.349438 192.489,153.477901 C194.740345,151.606363 196.67004,149.307081 198.278143,146.579984 C199.886246,143.852887 201.38712,140.724793 202.78081,137.195609 L239.284571,43.6726922 L219.183381,43.6726922 L200.047048,99.6581089 L199.725429,99.6581089 L178.176952,43.6726922 L156.950095,43.6726922 Z M53.8711905,64.2060255 C52.1558803,61.960181 49.7973642,60.0084644 46.7955714,58.3508172 C43.7937786,56.69317 40.5240177,55.8643589 36.9861905,55.8643589 C33.8771908,55.8643589 31.036251,56.5060191 28.4632857,57.7893589 C25.8903205,59.0726986 24.6038571,61.2115661 24.6038571,64.2060255 C24.6038571,67.2004849 26.0243271,69.3126166 28.8653095,70.5424839 C31.706292,71.7723511 35.8604965,73.0289358 41.3280476,74.3122755 C44.2226335,74.9539454 47.1439773,75.8094924 50.0921667,76.8789422 C53.040356,77.948392 55.7204879,79.3653917 58.1326429,81.1299839 C60.5447978,82.894576 62.5012941,85.0869152 64.0021905,87.7070672 C65.5030869,90.3272192 66.2535238,93.5087846 66.2535238,97.2518589 C66.2535238,101.957438 65.3690803,105.941079 63.6001667,109.202901 C61.8312531,112.464722 59.472737,115.111571 56.5245476,117.143526 C53.5763583,119.17548 50.1457894,120.645952 46.2327381,121.554984 C42.3196868,122.464016 38.2726876,122.918526 34.091619,122.918526 C28.0880335,122.918526 22.2453459,121.822356 16.563381,119.629984 C10.881416,117.437612 6.16438384,114.309518 2.41214286,110.245609 L15.1160952,98.3747755 C17.2602329,101.155345 20.0475701,103.454628 23.4781905,105.272692 C26.9088108,107.090757 30.7145981,107.999776 34.8956667,107.999776 C36.2893562,107.999776 37.7098261,107.83936 39.157119,107.518526 C40.604412,107.197691 41.944478,106.68971 43.1773571,105.994567 C44.4102363,105.299425 45.4018851,104.36367 46.1523333,103.187276 C46.9027815,102.010881 47.278,100.567145 47.278,98.8560255 C47.278,95.6476762 45.8039274,93.3483936 42.8557381,91.9581089 C39.9075488,90.5678241 35.4853311,89.1775603 29.5889524,87.7872755 C26.6943665,87.1456057 23.880228,86.3167945 21.1464524,85.3008172 C18.4126768,84.2848399 15.9737568,82.9480477 13.829619,81.2904005 C11.6854813,79.6327533 9.97019691,77.5740934 8.68371429,75.1143589 C7.39723166,72.6546243 6.754,69.6067382 6.754,65.9706089 C6.754,61.6928097 7.63844354,58.0032633 9.40735714,54.9018589 C11.1762707,51.8004545 13.5079855,49.2605493 16.4025714,47.2820672 C19.2971573,45.3035851 22.5669183,43.8331137 26.2119524,42.8706089 C29.8569865,41.908104 33.6091712,41.4268589 37.468619,41.4268589 C43.0433771,41.4268589 48.4840449,42.3893492 53.7907857,44.3143589 C59.0975265,46.2393685 63.3053337,49.1803113 66.4143333,53.1372755 L53.8711905,64.2060255 Z" id="sky" filter="url(#filter-1)"></path>
                        <path d="M3.62552381,141.05 L68.1832381,141.05 C74.4207296,141.05 80.5801601,141.788881 86.6617143,143.266667 C92.7432685,144.744452 98.162008,147.155539 102.918095,150.5 C107.674183,153.844461 111.533572,158.161085 114.496381,163.45 C117.459189,168.738915 118.940571,175.116629 118.940571,182.583333 C118.940571,191.916713 116.289677,199.616636 110.98781,205.683333 C105.685942,211.75003 98.7468365,216.105542 90.1702857,218.75 L90.1702857,219.216667 C100.618084,220.616674 109.194506,224.661078 115.89981,231.35 C122.605113,238.038922 125.957714,246.983277 125.957714,258.183333 C125.957714,267.205601 124.164462,274.788858 120.577905,280.933333 C116.991347,287.077808 112.274315,292.016648 106.426667,295.75 C100.579018,299.483352 93.8738156,302.166658 86.3108571,303.8 C78.7478987,305.433341 71.0681025,306.25 63.2712381,306.25 L3.62552381,306.25 L3.62552381,141.05 Z M33.0975238,208.25 L59.2948571,208.25 C69.1189063,208.25 76.6037838,206.305575 81.7497143,202.416667 C86.8956448,198.527758 89.4685714,193.005591 89.4685714,185.85 C89.4685714,178.383296 86.8176773,173.09446 81.5158095,169.983333 C76.2139417,166.872207 67.9493895,165.316667 56.7219048,165.316667 L33.0975238,165.316667 L33.0975238,208.25 Z M33.0975238,281.516667 L59.5287619,281.516667 C63.2712568,281.516667 67.3255655,281.244447 71.6918095,280.7 C76.0580536,280.155553 80.0733785,279.027786 83.7379048,277.316667 C87.402431,275.605547 90.4431625,273.116683 92.8601905,269.85 C95.2772184,266.583317 96.4857143,262.227805 96.4857143,256.783333 C96.4857143,248.072179 93.5229503,242.005573 87.5973333,238.583333 C81.6717164,235.161094 72.7054569,233.45 60.6982857,233.45 L33.0975238,233.45 L33.0975238,281.516667 Z M195.739334,223.183333 C195.739334,209.961045 197.961407,198.022275 202.40562,187.366667 C206.849833,176.711058 213.009263,167.650037 220.884096,160.183333 C228.758929,152.716629 238.115026,146.961131 248.952667,142.916667 C259.790309,138.872202 271.602381,136.85 284.389239,136.85 C297.332034,136.85 309.261057,138.872202 320.176667,142.916667 C331.092278,146.961131 340.526342,152.716629 348.479144,160.183333 C356.431945,167.650037 362.63036,176.711058 367.074572,187.366667 C371.518785,198.022275 373.740858,209.961045 373.740858,223.183333 C373.740858,236.094509 371.518785,247.877724 367.074572,258.533333 C362.63036,269.188942 356.431945,278.366628 348.479144,286.066667 C340.526342,293.766705 331.092278,299.755534 320.176667,304.033333 C309.261057,308.311132 297.332034,310.45 284.389239,310.45 C271.602381,310.45 259.790309,308.311132 248.952667,304.033333 C238.115026,299.755534 228.758929,293.766705 220.884096,286.066667 C213.009263,278.366628 206.849833,269.188942 202.40562,258.533333 C197.961407,247.877724 195.739334,236.094509 195.739334,223.183333 Z M227.784286,223.183333 C227.784286,232.050044 229.148717,240.177741 231.87762,247.566667 C234.606522,254.955592 238.504896,261.372195 243.572858,266.816667 C248.64082,272.261138 254.644315,276.499985 261.583525,279.533333 C268.522734,282.566682 276.20253,284.083333 284.623144,284.083333 C293.043757,284.083333 300.762537,282.566682 307.779715,279.533333 C314.796893,276.499985 320.839372,272.261138 325.907334,266.816667 C330.975296,261.372195 334.87367,254.955592 337.602572,247.566667 C340.331475,240.177741 341.695906,232.050044 341.695906,223.183333 C341.695906,214.627735 340.331475,206.694481 337.602572,199.383333 C334.87367,192.072186 331.01428,185.694472 326.024286,180.25 C321.034293,174.805528 315.030798,170.527793 308.01362,167.416667 C300.996442,164.30554 293.199694,162.75 284.623144,162.75 C276.046593,162.75 268.288829,164.30554 261.34962,167.416667 C254.410411,170.527793 248.445899,174.805528 243.455906,180.25 C238.465912,185.694472 234.606522,192.072186 231.87762,199.383333 C229.148717,206.694481 227.784286,214.627735 227.784286,223.183333 Z M485.157525,218.05 L433.698478,141.05 L469.252002,141.05 L503.402097,197.516667 L537.084383,141.05 L571.000573,141.05 L520.477144,218.75 L579.888954,306.25 L542.698097,306.25 L502.232573,241.383333 L463.404383,306.25 L427.850859,306.25 L485.157525,218.05 Z" id="BOX" filter="url(#filter-2)"></path>
                    </g>
                    <rect id="Rectangle-14" stroke="#D8D8D8" stroke-width="6" x="393.714286" y="114" width="220" height="220"></rect>
                </g>
                <text id="Functional-problem-s" sketch:type="MSTextLayer" font-family="Avenir Next" font-size="20" font-weight="526" fill="#979797">
                    <tspan x="133" y="379">Functional problem solving through creative images</tspan>
                </text>
            </g>
        </g>
    </g>
</svg>